<svg width="45" height="45" viewBox="0 0 45 45" fill="none" xmlns="http://www.w3.org/2000/svg">
<rect width="44.5777" height="44.5777" rx="22.2888" fill="white"/>
<path d="M22.5463 26.7828L28.7763 20.723C28.9206 20.5828 29 20.3957 29 20.1962C29 19.9967 28.9206 19.8096 28.7763 19.6695L28.3176 19.2232C28.0188 18.9328 27.533 18.9328 27.2345 19.2232L22.0029 24.3118L16.7655 19.2175C16.6213 19.0774 16.429 19 16.224 19C16.0188 19 15.8266 19.0774 15.6822 19.2175L15.2237 19.6638C15.0794 19.8041 15 19.9911 15 20.1906C15 20.3901 15.0794 20.5771 15.2237 20.7173L21.4594 26.7828C21.6041 26.9233 21.7972 27.0004 22.0026 27C22.2087 27.0004 22.4017 26.9233 22.5463 26.7828Z" fill="#3679A8"/>
</svg>
