<svg width="159" height="32" viewBox="0 0 159 32" fill="none" xmlns="http://www.w3.org/2000/svg">
<path d="M47.5939 8.9458H45.3175V12.1997H47.4161C47.9721 12.1997 48.4028 12.0653 48.7081 11.7964C49.0135 11.5229 49.1661 11.1265 49.1661 10.6069C49.1661 10.0874 49.034 9.6818 48.7697 9.39014C48.5099 9.09391 48.118 8.9458 47.5939 8.9458ZM45.3175 5.14502V8.00244H47.2794C47.7397 8.00244 48.1088 7.87712 48.3868 7.62646C48.6694 7.37581 48.8107 7.03174 48.8107 6.59424C48.8107 5.62809 48.2182 5.14502 47.0333 5.14502H45.3175ZM47.4161 13.1499H44.1075V4.19482H47.0333C47.9904 4.19482 48.7264 4.3999 49.2413 4.81006C49.7609 5.21566 50.0206 5.81722 50.0206 6.61475C50.0206 7.01123 49.8953 7.3667 49.6447 7.68115C49.394 7.99561 49.0568 8.22803 48.6329 8.37842C49.1707 8.49691 49.5945 8.76123 49.9044 9.17139C50.2189 9.57699 50.3761 10.0601 50.3761 10.6206C50.3761 11.4364 50.1141 12.063 49.59 12.5005C49.0704 12.9334 48.3458 13.1499 47.4161 13.1499ZM53.8282 13.2935C53.1355 13.2935 52.6069 13.118 52.2423 12.7671C51.8777 12.4162 51.6954 11.924 51.6954 11.2905C51.6954 10.6571 51.9506 10.1603 52.4611 9.80029C52.9715 9.44027 53.6733 9.26025 54.5665 9.26025H55.879V8.604C55.879 8.21208 55.7583 7.90446 55.5167 7.68115C55.2797 7.45329 54.9562 7.33936 54.546 7.33936C54.1404 7.33936 53.8146 7.43734 53.5685 7.6333C53.3224 7.82471 53.1993 8.06396 53.1993 8.35107H52.0441L52.0304 8.31689C52.0076 7.81559 52.24 7.36898 52.7277 6.97705C53.2198 6.58057 53.8442 6.38232 54.6007 6.38232C55.3618 6.38232 55.9679 6.57829 56.4191 6.97021C56.8702 7.35758 57.0958 7.90674 57.0958 8.61768V11.8237C57.0958 12.3387 57.1528 12.7853 57.2667 13.1636H56.0157C55.9292 12.7397 55.8836 12.4071 55.879 12.1655C55.642 12.5028 55.3413 12.7762 54.9767 12.9858C54.6167 13.1909 54.2338 13.2935 53.8282 13.2935ZM52.9191 11.3179H52.9122C52.9122 11.6187 53.0057 11.8534 53.1925 12.022C53.3794 12.1906 53.6687 12.2749 54.0607 12.2749C54.4526 12.2749 54.8263 12.1655 55.1818 11.9468C55.5418 11.7235 55.7765 11.4637 55.8859 11.1675V10.0806H54.5323C54.0493 10.0806 53.6596 10.2013 53.3634 10.4429C53.0672 10.6799 52.9191 10.9715 52.9191 11.3179ZM61.3409 12.3296C61.7693 12.3296 62.1066 12.2453 62.3527 12.0767C62.5988 11.9035 62.7218 11.6756 62.7218 11.3931C62.7218 11.1105 62.617 10.8872 62.4073 10.7231C62.1977 10.5545 61.8172 10.4064 61.2657 10.2788C60.4272 10.0965 59.8097 9.85498 59.4132 9.5542C59.0213 9.24886 58.8253 8.82959 58.8253 8.29639C58.8253 7.76318 59.0577 7.30973 59.5226 6.93604C59.9874 6.55778 60.5935 6.36865 61.3409 6.36865C62.0883 6.36865 62.6922 6.56689 63.1525 6.96338C63.6173 7.35531 63.8383 7.84294 63.8156 8.42627L63.8019 8.46045H62.6466C62.6466 8.15511 62.5213 7.89079 62.2706 7.66748C62.0245 7.44417 61.6987 7.33252 61.2931 7.33252C60.892 7.33252 60.5822 7.42367 60.3634 7.60596C60.1447 7.78369 60.0353 8.01156 60.0353 8.28955C60.0353 8.56755 60.131 8.77946 60.3224 8.92529C60.5138 9.07113 60.8898 9.20329 61.4503 9.32178C62.3071 9.50863 62.936 9.75928 63.337 10.0737C63.7381 10.3836 63.9386 10.7961 63.9386 11.311C63.9386 11.9035 63.6993 12.382 63.2208 12.7466C62.7469 13.1112 62.1088 13.2935 61.3068 13.2935C60.5047 13.2935 59.8553 13.0838 59.3585 12.6646C58.8663 12.2453 58.6316 11.7371 58.6544 11.1401L58.6681 11.106H59.8234C59.8462 11.5161 59.9988 11.826 60.2814 12.0356C60.5685 12.2407 60.9262 12.3433 61.3546 12.3433L61.3409 12.3296ZM69.5372 9.01416C69.5372 8.51286 69.4073 8.10954 69.1476 7.8042C68.8878 7.4943 68.5141 7.33936 68.0265 7.33936C67.6254 7.33936 67.2791 7.50798 66.9874 7.84521C66.7003 8.18245 66.5226 8.61312 66.4542 9.13721L66.4679 9.17139H69.5372V9.01416ZM68.2111 13.2935C67.2859 13.2935 66.5476 12.9881 65.9962 12.3774C65.4493 11.7668 65.1759 10.9624 65.1759 9.96436V9.69092C65.1759 8.75667 65.4539 7.97282 66.0099 7.33936C66.5704 6.70133 67.2426 6.38232 68.0265 6.38232C68.9106 6.38232 69.5851 6.64893 70.0499 7.18213C70.5193 7.71077 70.754 8.43766 70.754 9.36279V10.1216H66.4337L66.4132 10.1489C66.4269 10.8052 66.5909 11.3361 66.9054 11.7417C67.2244 12.1427 67.6596 12.3433 68.2111 12.3433C68.9858 12.3433 69.6147 12.1245 70.0978 11.687L70.5763 12.4731H70.5695C70.0135 13.02 69.2273 13.2935 68.2111 13.2935ZM71.8409 9.95752C71.8409 8.86833 72.0711 8.00016 72.5314 7.35303C72.9917 6.70589 73.6206 6.38232 74.4181 6.38232C75.2156 6.38232 75.8286 6.66488 76.257 7.22998V3.56592H77.4738V13.1636H76.4825L76.339 12.3433C75.8969 12.9767 75.268 13.2935 74.4523 13.2935C73.6365 13.2935 72.9985 13.0041 72.5382 12.4253C72.0779 11.842 71.8478 11.0627 71.8478 10.0874L71.8409 9.95752ZM73.0646 9.95752V10.0874C73.0646 10.7847 73.2036 11.3293 73.4816 11.7212C73.7641 12.1131 74.1879 12.3091 74.7531 12.3091C75.4366 12.3091 75.9425 11.9969 76.2706 11.3726V8.26904C75.9334 7.66748 75.4321 7.3667 74.7667 7.3667C74.1971 7.3667 73.771 7.59912 73.4884 8.06396C73.2059 8.52425 73.0646 9.15544 73.0646 9.95752ZM83.7765 9.77295V9.90967C83.7765 10.6479 83.9269 11.2381 84.2277 11.6802C84.533 12.1222 84.9705 12.3433 85.5402 12.3433C86.1098 12.3433 86.5473 12.1222 86.8527 11.6802C87.158 11.2336 87.3107 10.6434 87.3107 9.90967V9.77295C87.3107 9.04834 87.1557 8.46273 86.8458 8.01611C86.5405 7.56494 86.103 7.33936 85.5333 7.33936C84.9682 7.33936 84.533 7.56494 84.2277 8.01611C83.9269 8.46273 83.7765 9.04834 83.7765 9.77295ZM82.5597 9.90967V9.77295C82.5597 8.77035 82.8286 7.95459 83.3663 7.32568C83.9041 6.69678 84.6287 6.38232 85.5402 6.38232C86.4516 6.38232 87.1762 6.69678 87.714 7.32568C88.2517 7.95003 88.5206 8.76579 88.5206 9.77295V9.90967C88.5206 10.9214 88.2517 11.7394 87.714 12.3638C87.1808 12.9836 86.4562 13.2935 85.5402 13.2935C84.6287 13.2935 83.9041 12.9813 83.3663 12.3569C82.8286 11.7326 82.5597 10.9168 82.5597 9.90967ZM90.0109 6.4917H91.0909L91.1798 7.48291C91.6401 6.74007 92.2986 6.36865 93.1554 6.36865C93.8846 6.36865 94.4428 6.58285 94.8302 7.01123C95.2176 7.43506 95.4113 8.07992 95.4113 8.9458V13.1499H94.2013V8.97314C94.2013 8.39437 94.0874 7.97965 93.8595 7.729C93.6316 7.47835 93.2762 7.35303 92.7931 7.35303C92.4467 7.35303 92.1391 7.43506 91.8702 7.59912C91.6014 7.76318 91.3849 7.99561 91.2208 8.29639V13.1499H90.0109V6.4917ZM104.209 10.1353V5.93115L104.175 5.92432L104.059 6.23193L101.482 10.1353H104.209ZM105.419 4.19482V10.1353H106.65V11.0854H105.419V13.1499H104.209V11.0854H100.19V10.4019L104.134 4.19482H105.419ZM108.782 10.7231C108.782 11.2244 108.937 11.6209 109.247 11.9126C109.557 12.1997 109.97 12.3433 110.484 12.3433C111.004 12.3433 111.419 12.1974 111.729 11.9058C112.043 11.6141 112.2 11.2199 112.2 10.7231C112.2 10.2264 112.039 9.8208 111.715 9.50635C111.391 9.18734 110.979 9.02783 110.478 9.02783C109.976 9.02783 109.568 9.18506 109.254 9.49951C108.94 9.81396 108.782 10.2218 108.782 10.7231ZM109.035 6.56689C109.035 7.02262 109.167 7.38949 109.432 7.66748C109.701 7.94092 110.052 8.07764 110.484 8.07764C110.922 8.07764 111.275 7.94092 111.544 7.66748C111.813 7.38949 111.947 7.02718 111.947 6.58057C111.947 6.12939 111.808 5.75798 111.53 5.46631C111.252 5.17464 110.899 5.02881 110.471 5.02881C110.047 5.02881 109.701 5.17008 109.432 5.45264C109.167 5.73519 109.035 6.10661 109.035 6.56689ZM107.825 6.54639C107.825 5.76253 108.062 5.15641 108.536 4.72803C109.015 4.29508 109.66 4.07861 110.471 4.07861C111.282 4.07861 111.931 4.29508 112.419 4.72803C112.911 5.16097 113.157 5.76709 113.157 6.54639C113.157 7.00667 113.027 7.41227 112.768 7.76318C112.512 8.1141 112.157 8.37842 111.701 8.55615C112.225 8.743 112.64 9.03011 112.945 9.41748C113.251 9.80029 113.403 10.2401 113.403 10.7368C113.403 11.5526 113.139 12.1838 112.61 12.6304C112.082 13.0724 111.371 13.2935 110.478 13.2935C109.589 13.2935 108.883 13.0724 108.359 12.6304C107.834 12.1883 107.572 11.5571 107.572 10.7368C107.572 10.2401 107.723 9.80029 108.024 9.41748C108.324 9.03011 108.734 8.743 109.254 8.55615C108.803 8.37842 108.452 8.11637 108.201 7.77002C107.951 7.41911 107.825 7.01123 107.825 6.54639ZM118.202 5.63037V8.23486H120.656V9.32861H118.202V12.1519H116.992V9.32861H114.518V8.23486H116.992V5.63037H118.202ZM50.6017 23.6929V26.9673C50.3601 27.3364 49.9682 27.6486 49.4259 27.9038C48.8836 28.159 48.2228 28.2866 47.4435 28.2866C46.3634 28.2866 45.4747 27.9448 44.7775 27.2612C44.0848 26.5731 43.7384 25.6867 43.7384 24.6021V22.7563C43.7384 21.6626 44.062 20.7762 44.7091 20.0972C45.3608 19.4136 46.1993 19.0718 47.2247 19.0718C48.2501 19.0718 49.059 19.3201 49.6515 19.8169C50.2485 20.3136 50.5516 20.9699 50.5607 21.7856L50.547 21.8198H49.3917C49.3507 21.2775 49.1456 20.8446 48.7765 20.521C48.4119 20.1929 47.8924 20.0288 47.2179 20.0288C46.548 20.0288 46.0034 20.284 45.5841 20.7944C45.1648 21.3003 44.9552 21.952 44.9552 22.7495V24.6089C44.9552 25.4064 45.1876 26.0627 45.6525 26.5776C46.1173 27.0881 46.7143 27.3433 47.4435 27.3433C47.922 27.3433 48.3276 27.2817 48.6603 27.1587C48.993 27.0311 49.2345 26.8716 49.3849 26.6802V24.6431H47.423V23.6929H50.6017ZM53.3976 24.7729V24.9097C53.3976 25.6479 53.548 26.2381 53.8488 26.6802C54.1541 27.1222 54.5916 27.3433 55.1613 27.3433C55.7309 27.3433 56.1684 27.1222 56.4738 26.6802C56.7791 26.2336 56.9318 25.6434 56.9318 24.9097V24.7729C56.9318 24.0483 56.7768 23.4627 56.4669 23.0161C56.1616 22.5649 55.7241 22.3394 55.1544 22.3394C54.5893 22.3394 54.1541 22.5649 53.8488 23.0161C53.548 23.4627 53.3976 24.0483 53.3976 24.7729ZM52.1808 24.9097V24.7729C52.1808 23.7703 52.4497 22.9546 52.9874 22.3257C53.5252 21.6968 54.2498 21.3823 55.1613 21.3823C56.0727 21.3823 56.7973 21.6968 57.3351 22.3257C57.8728 22.95 58.1417 23.7658 58.1417 24.7729V24.9097C58.1417 25.9214 57.8728 26.7394 57.3351 27.3638C56.8019 27.9836 56.0773 28.2935 55.1613 28.2935C54.2498 28.2935 53.5252 27.9813 52.9874 27.3569C52.4497 26.7326 52.1808 25.9168 52.1808 24.9097ZM60.5616 24.7729V24.9097C60.5616 25.6479 60.712 26.2381 61.0128 26.6802C61.3182 27.1222 61.7557 27.3433 62.3253 27.3433C62.895 27.3433 63.3325 27.1222 63.6378 26.6802C63.9432 26.2336 64.0958 25.6434 64.0958 24.9097V24.7729C64.0958 24.0483 63.9409 23.4627 63.631 23.0161C63.3256 22.5649 62.8881 22.3394 62.3185 22.3394C61.7534 22.3394 61.3182 22.5649 61.0128 23.0161C60.712 23.4627 60.5616 24.0483 60.5616 24.7729ZM59.3448 24.9097V24.7729C59.3448 23.7703 59.6137 22.9546 60.1515 22.3257C60.6892 21.6968 61.4139 21.3823 62.3253 21.3823C63.2368 21.3823 63.9614 21.6968 64.4991 22.3257C65.0369 22.95 65.3058 23.7658 65.3058 24.7729V24.9097C65.3058 25.9214 65.0369 26.7394 64.4991 27.3638C63.9659 27.9836 63.2413 28.2935 62.3253 28.2935C61.4139 28.2935 60.6892 27.9813 60.1515 27.3569C59.6137 26.7326 59.3448 25.9168 59.3448 24.9097ZM66.5294 25.3745V25.2446C66.5294 24.1554 66.7641 23.2873 67.2335 22.6401C67.7029 21.993 68.3501 21.6694 69.1749 21.6694C70.0044 21.6694 70.6401 21.9998 71.0822 22.6606L71.2325 21.7925H72.1964V28.4849C72.1964 29.3416 71.948 29.9979 71.4513 30.4536C70.9591 30.9093 70.2436 31.1372 69.3048 31.1372C68.9812 31.1372 68.6349 31.0916 68.2657 31.0005C67.8966 30.9139 67.5708 30.7954 67.2882 30.645L67.5958 29.7017C67.8146 29.8247 68.0766 29.925 68.382 30.0024C68.6919 30.0799 68.9949 30.1187 69.2911 30.1187C69.879 30.1187 70.3074 29.9865 70.5763 29.7222C70.8497 29.4578 70.9865 29.0454 70.9865 28.4849V27.7329C70.5444 28.298 69.9246 28.5806 69.1271 28.5806C68.3341 28.5806 67.7029 28.2889 67.2335 27.7056C66.7641 27.1177 66.5294 26.3407 66.5294 25.3745ZM67.7394 25.2446V25.3745C67.7394 26.0627 67.8829 26.605 68.17 27.0015C68.4617 27.3979 68.8901 27.5962 69.4552 27.5962C70.1479 27.5962 70.6606 27.2772 70.9933 26.6392V23.5767C70.6469 22.9614 70.1388 22.6538 69.4689 22.6538C68.9038 22.6538 68.4731 22.8885 68.1769 23.3579C67.8852 23.8228 67.7394 24.4517 67.7394 25.2446ZM75.2657 18.5522V28.1499H74.0558V18.5522H75.2657ZM81.213 24.0142C81.213 23.5129 81.0831 23.1095 80.8234 22.8042C80.5636 22.4943 80.1899 22.3394 79.7023 22.3394C79.3012 22.3394 78.9549 22.508 78.6632 22.8452C78.3761 23.1825 78.1984 23.6131 78.13 24.1372L78.1437 24.1714H81.213V24.0142ZM79.8868 28.2935C78.9617 28.2935 78.2234 27.9881 77.672 27.3774C77.1251 26.7668 76.8517 25.9624 76.8517 24.9644V24.6909C76.8517 23.7567 77.1297 22.9728 77.6857 22.3394C78.2462 21.7013 78.9184 21.3823 79.7023 21.3823C80.5864 21.3823 81.2609 21.6489 81.7257 22.1821C82.1951 22.7108 82.4298 23.4377 82.4298 24.3628V25.1216H78.1095L78.089 25.1489C78.1027 25.8052 78.2667 26.3361 78.5812 26.7417C78.9002 27.1427 79.3354 27.3433 79.8868 27.3433C80.6616 27.3433 81.2905 27.1245 81.7736 26.687L82.2521 27.4731H82.2452C81.6892 28.02 80.9031 28.2935 79.8868 28.2935ZM91.0499 24.2671H88.7941V28.1499H87.5841V19.1948H90.8243C91.8087 19.1948 92.5584 19.4113 93.0734 19.8442C93.5883 20.2772 93.8458 20.9106 93.8458 21.7446C93.8458 22.6743 93.3764 23.3442 92.4376 23.7544C93.3628 24.0552 93.8253 24.7593 93.8253 25.8667V26.7075C93.8253 27.3182 93.962 27.7489 94.2355 27.9995V28.1499H92.9845C92.7338 27.9266 92.6085 27.4435 92.6085 26.7007V25.8804C92.6085 25.3927 92.4672 25.0031 92.1847 24.7114C91.9021 24.4152 91.5239 24.2671 91.0499 24.2671ZM88.7941 20.145V23.3169H90.7013C91.3849 23.3169 91.8771 23.1893 92.1779 22.9341C92.4832 22.6743 92.6359 22.2733 92.6359 21.731C92.6359 20.6737 92.032 20.145 90.8243 20.145H88.7941ZM99.7931 24.0142C99.7931 23.5129 99.6632 23.1095 99.4034 22.8042C99.1437 22.4943 98.77 22.3394 98.2823 22.3394C97.8813 22.3394 97.535 22.508 97.2433 22.8452C96.9562 23.1825 96.7784 23.6131 96.7101 24.1372L96.7238 24.1714H99.7931V24.0142ZM98.4669 28.2935C97.5418 28.2935 96.8035 27.9881 96.2521 27.3774C95.7052 26.7668 95.4318 25.9624 95.4318 24.9644V24.6909C95.4318 23.7567 95.7098 22.9728 96.2657 22.3394C96.8263 21.7013 97.4985 21.3823 98.2823 21.3823C99.1665 21.3823 99.8409 21.6489 100.306 22.1821C100.775 22.7108 101.01 23.4377 101.01 24.3628V25.1216H96.6896L96.6691 25.1489C96.6827 25.8052 96.8468 26.3361 97.1613 26.7417C97.4803 27.1427 97.9155 27.3433 98.4669 27.3433C99.2417 27.3433 99.8706 27.1245 100.354 26.687L100.832 27.4731H100.825C100.269 28.02 99.4832 28.2935 98.4669 28.2935ZM102.944 21.4917L104.524 26.188L104.626 26.6528H104.66L104.776 26.188L106.315 21.4917H107.545L105.098 28.1499H104.182L101.7 21.4917H102.944ZM109.951 21.4917V28.1499H108.741V21.4917H109.951ZM109.951 18.5522V19.7896H108.741V18.5522H109.951ZM115.899 24.0142C115.899 23.5129 115.769 23.1095 115.509 22.8042C115.249 22.4943 114.875 22.3394 114.388 22.3394C113.987 22.3394 113.64 22.508 113.349 22.8452C113.062 23.1825 112.884 23.6131 112.816 24.1372L112.829 24.1714H115.899V24.0142ZM114.572 28.2935C113.647 28.2935 112.909 27.9881 112.358 27.3774C111.811 26.7668 111.537 25.9624 111.537 24.9644V24.6909C111.537 23.7567 111.815 22.9728 112.371 22.3394C112.932 21.7013 113.604 21.3823 114.388 21.3823C115.272 21.3823 115.946 21.6489 116.411 22.1821C116.881 22.7108 117.115 23.4377 117.115 24.3628V25.1216H112.795L112.775 25.1489C112.788 25.8052 112.952 26.3361 113.267 26.7417C113.586 27.1427 114.021 27.3433 114.572 27.3433C115.347 27.3433 115.976 27.1245 116.459 26.687L116.938 27.4731H116.931C116.375 28.02 115.589 28.2935 114.572 28.2935ZM119.091 21.4917L120.192 25.7231L120.335 26.5298H120.369L120.54 25.7231L121.873 21.4917H122.844L124.177 25.7231L124.368 26.6255H124.409L124.587 25.7231L125.633 21.4917H126.836L124.901 28.1499H123.924L122.639 24.0962L122.365 22.9614L122.324 22.9683L122.065 24.0962L120.793 28.1499H119.816L117.888 21.4917H119.091ZM130.507 27.3296C130.935 27.3296 131.273 27.2453 131.519 27.0767C131.765 26.9035 131.888 26.6756 131.888 26.3931C131.888 26.1105 131.783 25.8872 131.573 25.7231C131.364 25.5545 130.983 25.4064 130.432 25.2788C129.593 25.0965 128.976 24.855 128.579 24.5542C128.187 24.2489 127.991 23.8296 127.991 23.2964C127.991 22.7632 128.224 22.3097 128.689 21.936C129.153 21.5578 129.76 21.3687 130.507 21.3687C131.254 21.3687 131.858 21.5669 132.318 21.9634C132.783 22.3553 133.004 22.8429 132.982 23.4263L132.968 23.4604H131.813C131.813 23.1551 131.687 22.8908 131.437 22.6675C131.191 22.4442 130.865 22.3325 130.459 22.3325C130.058 22.3325 129.748 22.4237 129.529 22.606C129.311 22.7837 129.201 23.0116 129.201 23.2896C129.201 23.5675 129.297 23.7795 129.488 23.9253C129.68 24.0711 130.056 24.2033 130.616 24.3218C131.473 24.5086 132.102 24.7593 132.503 25.0737C132.904 25.3836 133.105 25.7961 133.105 26.311C133.105 26.9035 132.865 27.382 132.387 27.7466C131.913 28.1112 131.275 28.2935 130.473 28.2935C129.671 28.2935 129.021 28.0838 128.525 27.6646C128.032 27.2453 127.798 26.7371 127.82 26.1401L127.834 26.106H128.989C129.012 26.5161 129.165 26.826 129.447 27.0356C129.734 27.2407 130.092 27.3433 130.521 27.3433L130.507 27.3296Z" fill="#3B3C48"/>
<path d="M31.6044 16.3856C31.6044 15.3067 31.5155 14.222 31.3258 13.1606H16.1192V19.2724H24.8273C24.4659 21.2435 23.3049 22.9873 21.6047 24.0952V28.0608H26.8C29.8509 25.2965 31.6044 21.2143 31.6044 16.3856Z" fill="#4285F4"/>
<path d="M16.1192 31.8924C20.4673 31.8924 24.1343 30.4869 26.8058 28.0608L21.6106 24.0952C20.1652 25.0634 18.2992 25.6116 16.1251 25.6116C11.9191 25.6116 8.35287 22.8181 7.0733 19.0625H1.71213V23.1505C4.449 28.5101 10.0234 31.8924 16.1192 31.8924Z" fill="#34A853"/>
<path d="M7.06738 19.0622C6.39205 17.0911 6.39205 14.9567 7.06738 12.9855V8.89746H1.71214C-0.574499 13.3821 -0.574499 18.6657 1.71214 23.1502L7.06738 19.0622Z" fill="#FBBC04"/>
<path d="M16.1192 6.43081C18.4176 6.39583 20.6391 7.24725 22.3037 8.81019L26.9066 4.27888C23.9921 1.58461 20.1237 0.103341 16.1192 0.149995C10.0234 0.149995 4.449 3.53243 1.71213 8.89766L7.06737 12.9857C8.34101 9.22423 11.9131 6.43081 16.1192 6.43081Z" fill="#EA4335"/>
</svg>
