<svg width="32" height="32" viewBox="0 0 32 32" fill="none" xmlns="http://www.w3.org/2000/svg">
<path d="M31.6044 16.3856C31.6044 15.3067 31.5155 14.222 31.3258 13.1606H16.1192V19.2724H24.8273C24.4659 21.2435 23.3049 22.9873 21.6047 24.0952V28.0608H26.8C29.8509 25.2965 31.6044 21.2143 31.6044 16.3856Z" fill="#4285F4"/>
<path d="M16.1192 31.8924C20.4673 31.8924 24.1343 30.4869 26.8058 28.0608L21.6106 24.0952C20.1652 25.0634 18.2992 25.6116 16.1251 25.6116C11.9191 25.6116 8.35287 22.8181 7.0733 19.0625H1.71213V23.1505C4.449 28.5101 10.0234 31.8924 16.1192 31.8924Z" fill="#34A853"/>
<path d="M7.06738 19.0622C6.39205 17.0911 6.39205 14.9567 7.06738 12.9855V8.89746H1.71214C-0.574499 13.3821 -0.574499 18.6657 1.71214 23.1502L7.06738 19.0622Z" fill="#FBBC04"/>
<path d="M16.1192 6.43081C18.4176 6.39583 20.6391 7.24725 22.3037 8.81019L26.9066 4.27888C23.9921 1.58461 20.1237 0.103341 16.1192 0.149995C10.0234 0.149995 4.449 3.53243 1.71213 8.89766L7.06737 12.9857C8.34101 9.22423 11.9131 6.43081 16.1192 6.43081Z" fill="#EA4335"/>
</svg>
