<svg width="157" height="30" viewBox="0 0 157 30" fill="none" xmlns="http://www.w3.org/2000/svg">
<path d="M15.3 23.5259L24.7554 29.2232L22.2462 18.4855L30.6 11.2608L19.5993 10.3291L15.3 0.202393L11.0007 10.3291L0 11.2608L8.3538 18.4855L5.8446 29.2232L15.3 23.5259Z" fill="#FFC71D"/>
<path d="M46.9001 23.5259L56.3555 29.2232L53.8463 18.4855L62.2001 11.2608L51.1994 10.3291L46.9001 0.202393L42.6008 10.3291L31.6001 11.2608L39.9539 18.4855L37.4447 29.2232L46.9001 23.5259Z" fill="#FFC71D"/>
<path d="M78.5 23.5259L87.9554 29.2232L85.4462 18.4855L93.8 11.2608L82.7993 10.3291L78.5 0.202393L74.2007 10.3291L63.2 11.2608L71.5538 18.4855L69.0446 29.2232L78.5 23.5259Z" fill="#FFC71D"/>
<path d="M110.1 23.5259L119.555 29.2232L117.046 18.4855L125.4 11.2608L114.399 10.3291L110.1 0.202393L105.801 10.3291L94.8 11.2608L103.154 18.4855L100.645 29.2232L110.1 23.5259Z" fill="#FFC71D"/>
<path d="M141.7 23.5259L151.155 29.2232L148.646 18.4855L157 11.2608L145.999 10.3291L141.7 0.202393L137.401 10.3291L126.4 11.2608L134.754 18.4855L132.245 29.2232L141.7 23.5259Z" fill="#FFC71D"/>
</svg>
