<svg width="26" height="26" viewBox="0 0 26 26" fill="none" xmlns="http://www.w3.org/2000/svg">
<path d="M16.9081 15.94L14.9036 18.4868C11.7994 16.6322 9.21243 14.0026 7.38784 10.8473L9.89345 8.80979C10.1869 8.57078 10.3943 8.23976 10.4833 7.86837C10.5723 7.49697 10.5378 7.10609 10.3853 6.75668L8.10212 1.52858C7.9383 1.15364 7.64882 0.850009 7.28527 0.671823C6.92172 0.493637 6.50773 0.452471 6.1171 0.555664L1.76892 1.70149C1.36283 1.80898 1.00971 2.0643 0.776592 2.41896C0.543474 2.77363 0.446589 3.20296 0.504331 3.62544C1.26743 9.14842 3.77875 14.2687 7.65862 18.2123C11.5385 22.1559 16.576 24.7083 22.0095 25.4837C22.4247 25.5419 22.8465 25.4433 23.1949 25.2066C23.5434 24.9699 23.7943 24.6115 23.9003 24.1993L25.0275 19.7795C25.1286 19.3829 25.088 18.9627 24.9129 18.5936C24.7378 18.2245 24.4396 17.9306 24.0714 17.7639L18.929 15.4421C18.5855 15.2868 18.2011 15.2515 17.8357 15.3415C17.4703 15.4316 17.1446 15.642 16.9092 15.94H16.9081Z" fill="#F5F9F8"/>
</svg>
