<svg width="1440" height="615" viewBox="0 0 1440 615" fill="none" xmlns="http://www.w3.org/2000/svg">
<mask id="mask0_3015_7295" style="mask-type:luminance" maskUnits="userSpaceOnUse" x="-5" y="0" width="1446" height="654">
<path d="M167.165 419.939C161.569 424.176 156.428 428.897 151.719 434.075C142.833 435.104 134.413 436.584 126.428 438.478C138.042 430.327 151.805 424.313 167.165 419.939ZM195.998 414.176C190.889 419.6 186.294 425.613 182.105 432.088C172.241 432.216 162.845 432.81 153.849 433.79C158.883 428.39 164.401 423.504 170.415 419.148C178.498 417.034 187.043 415.388 195.998 414.176ZM213.426 398.707C207.632 402.929 202.293 407.675 197.3 412.822C188.743 413.905 180.566 415.386 172.795 417.283C184.598 409.205 198.259 403.12 213.426 398.707ZM225.802 411.789C221.309 418.309 217.221 425.333 213.621 432.955C203.311 432.296 193.298 431.937 183.728 432.015C188.056 425.45 192.817 419.372 198.098 413.895C206.933 412.773 216.17 412.071 225.802 411.789ZM241.458 392.904C236.108 398.299 231.183 404.226 226.658 410.652C217.196 410.881 208.106 411.508 199.404 412.539C204.732 407.177 210.448 402.263 216.661 397.925C224.54 395.821 232.818 394.16 241.458 392.904ZM259.623 377.486C253.65 381.714 248.064 386.433 242.815 391.578C234.568 392.699 226.662 394.207 219.103 396.098C231.11 388.128 244.627 381.917 259.623 377.486ZM256.341 412.126C252.416 419.565 248.878 427.529 245.771 436.07C235.185 434.761 224.871 433.737 214.911 433.069C218.61 425.382 222.781 418.275 227.394 411.718C236.698 411.485 246.348 411.618 256.341 412.126ZM270.249 390.335C265.452 396.758 260.98 403.625 256.963 411.108C247.06 410.574 237.484 410.394 228.252 410.579C232.928 404.073 238.002 398.064 243.534 392.626C252.084 391.461 260.996 390.703 270.249 390.335ZM286.847 371.644C281.26 377.009 276.013 382.848 271.159 389.222C262.071 389.533 253.313 390.225 244.896 391.3C250.491 385.949 256.441 381.044 262.841 376.715C270.515 374.627 278.516 372.933 286.847 371.644ZM305.418 356.504C299.387 360.678 293.665 365.288 288.263 370.343C280.32 371.494 272.699 373.038 265.351 374.917C277.426 367.127 290.77 360.957 305.418 356.504ZM287.239 414.671C283.698 422.877 280.481 431.569 277.623 440.789C267.101 438.996 256.829 437.469 246.823 436.215C249.998 427.615 253.642 419.642 257.651 412.163C267.217 412.675 277.091 413.52 287.239 414.671ZM299.543 390.386C295.222 397.653 291.228 405.413 287.602 413.72C277.554 412.559 267.756 411.684 258.273 411.145C262.375 403.621 266.927 396.705 271.823 390.264C280.759 389.952 290.003 389.993 299.543 390.386ZM314.648 368.891C309.519 375.238 304.669 382.015 300.217 389.391C290.763 388.968 281.598 388.887 272.736 389.151C277.741 382.692 283.141 376.775 288.911 371.369C297.184 370.165 305.76 369.335 314.648 368.891ZM332.166 350.397C326.338 355.718 320.8 361.49 315.613 367.798C306.89 368.184 298.47 368.951 290.33 370.064C296.186 364.717 302.383 359.846 308.963 355.514C316.407 353.423 324.148 351.724 332.166 350.397ZM350.753 335.77C344.791 339.816 339.084 344.262 333.639 349.116C326.011 350.309 318.662 351.876 311.538 353.744C323.524 346.202 336.626 340.237 350.753 335.77ZM317.43 418.875C314.09 427.64 311.025 436.865 308.257 446.573C298.149 444.475 288.274 442.626 278.575 440.964C281.459 431.708 284.701 422.98 288.287 414.764C297.752 415.857 307.502 417.262 317.43 418.875ZM328.959 392.553C324.93 400.544 321.185 409.015 317.738 417.977C307.81 416.349 298.099 414.976 288.63 413.864C292.326 405.493 296.432 397.732 300.835 390.423C309.95 390.825 319.334 391.543 328.959 392.553ZM342.731 368.65C337.985 375.806 333.532 383.464 329.378 391.624C319.848 390.604 310.544 389.858 301.51 389.427C306.046 382.007 310.979 375.185 316.208 368.817C324.786 368.43 333.623 368.367 342.731 368.65ZM358.996 347.453C353.539 353.716 348.333 360.414 343.457 367.675C334.435 367.36 325.681 367.386 317.174 367.725C322.515 361.332 328.211 355.483 334.219 350.121C342.216 348.874 350.474 347.982 358.996 347.453ZM377.408 329.162C371.342 334.432 365.531 340.15 360.016 346.381C351.656 346.854 343.555 347.681 335.697 348.84C341.817 343.508 348.246 338.656 355.008 334.328C362.204 332.208 369.705 330.533 377.408 329.162ZM395.936 315.061C390.06 318.962 384.404 323.259 378.945 327.899C371.628 329.13 364.554 330.722 357.66 332.579C369.52 325.3 382.321 319.514 395.936 315.061ZM346.239 424.187C342.954 433.337 339.898 442.919 337.078 452.939C327.584 450.684 318.312 448.678 309.132 446.767C311.922 437.035 315.009 427.79 318.373 419.009C327.457 420.5 336.804 422.289 346.239 424.187ZM357.497 396.296C353.596 404.851 349.938 413.87 346.516 423.333C337.078 421.422 327.757 419.656 318.669 418.149C322.147 409.155 325.919 400.649 329.99 392.646C338.945 393.603 348.138 394.846 357.497 396.296ZM370.708 370.432C366.176 378.281 361.9 386.626 357.86 395.421C348.524 393.958 339.347 392.693 330.41 391.717C334.626 383.507 339.185 375.872 344.006 368.685C352.685 368.982 361.585 369.561 370.708 370.432ZM385.9 346.917C380.742 353.957 375.844 361.512 371.181 369.523C362.151 368.638 353.335 368.035 344.733 367.71C349.697 360.405 354.988 353.664 360.545 347.38C368.77 346.912 377.218 346.75 385.9 346.917ZM403.291 326.025C397.515 332.197 391.966 338.822 386.678 345.961C378.082 345.763 369.716 345.887 361.563 346.307C367.236 339.992 373.21 334.198 379.457 328.887C387.178 327.596 395.125 326.643 403.291 326.025ZM422.296 308.157C416.094 313.307 410.116 318.91 404.365 324.968C396.362 325.529 388.576 326.42 380.996 327.623C387.238 322.433 393.737 317.696 400.512 313.451C407.541 311.302 414.832 309.586 422.296 308.157ZM440.954 294.379C435.187 298.127 429.618 302.28 424.173 306.692C417.166 307.954 410.361 309.558 403.713 311.422C415.409 304.429 427.85 298.785 440.954 294.379ZM373.148 430.092C369.819 439.563 366.653 449.39 363.704 459.686C355.027 457.417 346.353 455.157 337.897 453.136C340.728 443.093 343.807 433.513 347.107 424.349C355.629 426.076 364.363 428.053 373.148 430.092ZM384.552 401.073C380.665 410.093 376.905 419.394 373.41 429.277C364.636 427.231 355.897 425.232 347.384 423.494C350.822 414.012 354.504 404.993 358.426 396.429C366.966 397.768 375.703 399.349 384.552 401.073ZM397.651 373.707C393.209 382.136 388.922 390.918 384.882 400.242C376.048 398.508 367.317 396.905 358.79 395.553C362.855 386.739 367.159 378.379 371.726 370.525C380.19 371.349 388.834 372.414 397.651 373.707ZM412.485 348.308C407.484 356.045 402.659 364.189 398.066 372.85C389.274 371.543 380.649 370.46 372.205 369.615C376.931 361.553 381.933 354.025 387.165 346.951C395.419 347.138 403.851 347.577 412.485 348.308ZM429.049 325.187C423.504 332.135 418.149 339.528 413.013 347.417C404.469 346.675 396.118 346.208 387.944 345.995C393.317 338.81 398.958 332.148 404.831 325.952C412.711 325.401 420.781 325.139 429.049 325.187ZM447.53 304.606C441.456 310.706 435.552 317.208 429.88 324.246C421.699 324.167 413.713 324.391 405.907 324.895C411.902 318.66 418.144 312.92 424.625 307.664C432.062 306.31 439.707 305.304 447.53 304.606ZM466.825 287.35C460.596 292.339 454.536 297.736 448.659 303.564C440.999 304.202 433.531 305.171 426.225 306.414C432.478 301.447 438.927 296.88 445.598 292.773C452.489 290.614 459.58 288.836 466.825 287.35ZM485.795 273.729C480.032 277.412 474.426 281.486 468.917 285.794C462.39 287.056 455.94 288.474 449.693 290.273C461.175 283.584 473.217 278.075 485.795 273.729ZM397.947 436.187C394.453 445.852 391.098 455.878 387.885 466.27C380.02 464.063 372.205 461.907 364.502 459.889C367.457 449.59 370.622 439.744 373.957 430.275C381.845 432.114 389.86 434.107 397.947 436.187ZM409.671 406.388C405.712 415.661 401.905 425.342 398.25 435.414C390.156 433.325 382.119 431.309 374.221 429.459C377.728 419.565 381.505 410.262 385.406 401.236C393.373 402.797 401.472 404.528 409.671 406.388ZM423.016 377.942C418.55 386.783 414.192 395.926 410.038 405.605C401.83 403.733 393.714 401.979 385.735 400.403C389.796 391.065 394.105 382.276 398.569 373.84C406.588 375.027 414.729 376.387 423.016 377.942ZM437.894 351.105C432.92 359.392 428.051 367.97 423.4 377.13C415.127 375.564 406.992 374.184 398.986 372.983C403.609 364.305 408.461 356.142 413.495 348.4C421.484 349.09 429.602 349.971 437.894 351.105ZM454.294 326.18C448.834 333.794 443.497 341.758 438.36 350.268C430.104 349.124 422.012 348.22 414.055 347.512C419.253 339.578 424.694 332.196 430.31 325.222C438.148 325.294 446.132 325.593 454.294 326.18ZM472.183 303.46C466.26 310.306 460.474 317.55 454.875 325.306C446.802 324.704 438.902 324.381 431.141 324.28C436.901 317.194 442.898 310.655 449.07 304.531C456.617 303.902 464.312 303.523 472.183 303.46ZM491.305 283.546C485.082 289.457 478.986 295.751 473.064 302.534C465.279 302.565 457.67 302.906 450.2 303.488C456.364 297.451 462.735 291.904 469.279 286.78C476.456 285.379 483.814 284.33 491.305 283.546ZM511.201 266.568C504.901 271.436 498.729 276.688 492.694 282.339C485.46 283.046 478.322 283.949 471.377 285.222C477.601 280.463 483.986 276.095 490.529 272.119C497.276 269.95 504.17 268.108 511.201 266.568ZM530.449 253.113C524.651 256.755 518.98 260.791 513.377 265.024C507.137 266.317 500.956 267.741 494.936 269.526C506.343 262.96 518.185 257.485 530.449 253.113ZM420.261 442.068C416.471 451.81 412.794 461.923 409.204 472.312C402.251 470.252 395.47 468.397 388.641 466.484C391.863 456.087 395.228 446.057 398.733 436.39C405.861 438.222 412.983 440.049 420.261 442.068ZM432.747 411.862C428.571 421.31 424.522 431.174 420.559 441.327C413.288 439.304 406.159 437.456 399.037 435.618C402.705 425.541 406.528 415.86 410.5 406.578C417.845 408.247 425.222 409.958 432.747 411.862ZM446.509 382.677C441.919 391.755 437.46 401.274 433.098 411.11C425.584 409.201 418.205 407.472 410.867 405.796C415.03 396.117 419.385 386.942 423.863 378.105C431.328 379.509 438.837 380.982 446.509 382.677ZM461.644 354.792C456.618 363.422 451.713 372.477 446.924 381.913C439.245 380.206 431.718 378.71 424.245 377.292C428.917 368.118 433.808 359.533 438.805 351.24C446.32 352.276 453.896 353.404 461.644 354.792ZM478.228 328.495C472.745 336.608 467.356 345.049 462.116 354.005C454.371 352.606 446.787 351.452 439.272 350.402C444.438 341.875 449.805 333.891 455.3 326.273C462.828 326.828 470.44 327.518 478.228 328.495ZM496.097 304.103C490.201 311.56 484.398 319.351 478.747 327.673C471.003 326.686 463.427 325.976 455.935 325.404C461.596 317.61 467.452 310.36 473.441 303.494C480.862 303.463 488.408 303.652 496.097 304.103ZM515.04 282.053C508.841 288.697 502.733 295.69 496.77 303.189C489.144 302.72 481.685 302.561 474.323 302.567C480.392 295.671 486.647 289.299 493.032 283.314C500.225 282.608 507.583 282.227 515.04 282.053ZM534.932 262.531C528.521 268.291 522.213 274.445 516.021 281.025C508.711 281.164 501.481 281.464 494.421 282.105C500.698 276.304 507.132 270.955 513.693 265.992C520.643 264.542 527.728 263.401 534.932 262.531ZM555.412 245.814C548.972 250.606 542.632 255.796 536.386 261.336C529.441 262.125 522.586 263.126 515.871 264.447C522.219 259.754 528.693 255.441 535.288 251.495C541.889 249.318 548.594 247.414 555.412 245.814ZM575.096 232.469C569.212 236.086 563.422 240.092 557.679 244.276C551.659 245.617 545.697 247.114 539.844 248.907C551.272 242.407 563.018 236.887 575.096 232.469ZM439.645 447.686C435.478 457.46 431.384 467.545 427.354 477.911C421.546 476.12 415.673 474.249 409.93 472.537C413.526 462.142 417.209 452.027 421.009 442.285C427.153 444.001 433.41 445.856 439.645 447.686ZM453.182 417.286C448.693 426.822 444.301 436.777 439.956 446.943C433.712 445.106 427.461 443.263 421.307 441.542C425.279 431.386 429.34 421.518 433.527 412.068C440.01 413.717 446.58 415.479 453.182 417.286ZM467.778 387.667C462.946 396.905 458.22 406.615 453.541 416.533C446.929 414.715 440.37 412.973 433.878 411.318C438.252 401.474 442.728 391.953 447.333 382.869C454.076 384.367 460.888 385.96 467.778 387.667ZM483.5 359.08C478.31 367.945 473.226 377.308 468.194 386.898C461.295 385.181 454.499 383.611 447.747 382.106C452.549 372.666 457.464 363.592 462.504 354.96C469.421 356.207 476.413 357.569 483.5 359.08ZM500.381 331.801C494.826 340.208 489.377 349.116 483.986 358.291C476.892 356.768 469.919 355.435 462.998 354.179C468.251 345.225 473.639 336.736 479.135 328.63C486.118 329.522 493.211 330.594 500.381 331.801ZM518.482 306.124C512.557 314.003 506.718 322.303 500.96 330.983C493.77 329.758 486.69 328.719 479.691 327.814C485.378 319.469 491.206 311.612 497.141 304.142C504.133 304.58 511.289 305.318 518.482 306.124ZM537.675 282.329C531.41 289.581 525.215 297.186 519.114 305.257C511.938 304.435 504.831 303.746 497.854 303.29C503.888 295.742 510.057 288.663 516.334 281.989C523.329 281.857 530.468 282.019 537.675 282.329ZM557.782 260.701C551.253 267.213 544.79 274.075 538.423 281.405C531.325 281.077 524.28 280.864 517.386 280.958C523.701 274.304 530.138 268.101 536.679 262.295C543.604 261.503 550.643 260.987 557.782 260.701ZM578.571 241.517C571.89 247.195 565.274 253.224 558.743 259.691C551.78 259.939 544.898 260.376 538.136 261.099C544.635 255.405 551.243 250.124 557.95 245.232C564.724 243.718 571.599 242.481 578.571 241.517ZM599.653 225.041C593.024 229.786 586.454 234.885 579.953 240.349C573.29 241.227 566.705 242.32 560.22 243.693C566.681 239.08 573.229 234.804 579.865 230.899C586.385 228.693 592.972 226.706 599.653 225.041ZM620.128 211.67C613.977 215.347 607.87 219.3 601.817 223.551C596.013 224.934 590.266 226.513 584.583 228.311C596.202 221.799 608.034 216.153 620.128 211.67ZM456.038 452.536C451.516 462.284 447.028 472.265 442.599 482.615C437.7 481.056 432.9 479.619 428.059 478.13C432.093 467.755 436.195 457.674 440.369 447.896C445.577 449.423 450.762 450.92 456.038 452.536ZM470.796 422.266C465.948 431.893 461.112 441.594 456.357 451.822C451.084 450.204 445.887 448.683 440.679 447.154C445.033 436.979 449.435 427.026 453.932 417.485C459.508 419.017 465.139 420.624 470.796 422.266ZM486.434 392.548C481.296 401.92 476.199 411.547 471.153 421.545C465.503 419.901 459.864 418.269 454.291 416.731C458.982 406.806 463.721 397.095 468.566 387.852C474.456 389.322 480.446 390.938 486.434 392.548ZM503.016 363.595C497.575 372.658 492.185 382.084 486.839 391.815C480.861 390.2 474.866 388.559 468.982 387.083C474.03 377.48 479.13 368.118 484.338 359.244C490.485 360.569 496.755 362.089 503.016 363.595ZM520.583 335.648C514.83 344.341 509.133 353.448 503.478 362.844C497.23 361.335 490.959 359.789 484.824 358.456C490.236 349.264 495.709 340.357 501.287 331.937C507.632 333.024 514.106 334.331 520.583 335.648ZM539.148 308.971C533.086 317.213 527.081 325.893 521.119 334.875C514.661 333.553 508.193 332.214 501.866 331.118C507.639 322.438 513.483 314.087 519.424 306.212C525.907 306.96 532.513 307.937 539.148 308.971ZM558.714 283.851C552.352 291.564 546.038 299.684 539.773 308.169C533.168 307.126 526.578 306.113 520.12 305.351C526.241 297.277 532.447 289.605 538.735 282.357C545.305 282.662 551.981 283.196 558.714 283.851ZM579.229 260.561C572.584 267.677 565.971 275.094 559.422 283.002C552.734 282.334 546.09 281.763 539.56 281.435C545.968 274.095 552.451 267.151 559.021 260.64C565.668 260.4 572.408 260.382 579.229 260.561ZM600.437 239.365C593.596 245.77 586.783 252.455 580.032 259.65C573.317 259.453 566.672 259.42 560.123 259.623C566.74 253.116 573.433 246.993 580.203 241.296C586.864 240.415 593.608 239.768 600.437 239.365ZM622.112 220.518C615.188 226.121 608.287 232 601.445 238.364C594.796 238.726 588.223 239.299 581.731 240.109C588.435 234.534 595.206 229.308 602.048 224.496C608.663 222.917 615.347 221.573 622.112 220.518ZM643.885 204.258C637.041 208.985 630.216 213.943 623.442 219.374C617.032 220.333 610.691 221.535 604.413 222.961C610.976 218.436 617.586 214.183 624.264 210.331C630.753 208.072 637.281 205.988 643.885 204.258ZM664.362 191.295C658.155 194.938 651.951 198.658 645.794 202.85C640.2 204.263 634.663 205.937 629.153 207.738C640.746 201.351 652.473 195.781 664.362 191.295ZM469.595 456.83C464.665 466.476 459.763 476.501 454.869 486.606C451.014 485.351 447.129 484.057 443.3 482.833C447.728 472.487 452.217 462.499 456.739 452.758C460.989 454.068 465.312 455.476 469.595 456.83ZM485.43 426.615C480.249 436.097 475.102 446.082 469.962 456.13C465.66 454.767 461.327 453.362 457.057 452.045C461.82 441.81 466.664 432.111 471.516 422.481C476.13 423.824 480.766 425.2 485.43 426.615ZM502.372 396.88C496.835 406.331 491.303 415.855 485.808 425.896C481.133 424.475 476.496 423.107 471.875 421.759C476.927 411.754 482.038 402.126 487.182 392.751C492.232 394.107 497.249 395.415 502.372 396.88ZM520.064 367.774C514.288 376.939 508.53 386.368 502.792 396.146C497.66 394.672 492.646 393.378 487.588 392.018C492.946 382.28 498.35 372.852 503.804 363.782C509.203 365.077 514.575 366.333 520.064 367.774ZM538.543 339.492C532.513 348.341 526.505 357.568 520.513 367.059C515.034 365.615 509.657 364.335 504.266 363.034C509.937 353.625 515.653 344.515 521.424 335.816C527.09 336.97 532.775 338.157 538.543 339.492ZM557.872 312.192C551.578 320.673 545.309 329.6 539.052 338.759C533.297 337.419 527.613 336.205 521.958 335.043C527.944 326.045 533.975 317.362 540.061 309.11C545.946 310.035 551.872 311.041 557.872 312.192ZM578.038 286.128C571.489 294.168 564.965 302.684 558.453 311.435C552.472 310.279 546.553 309.243 540.686 308.307C546.972 299.812 553.306 291.661 559.691 283.942C565.748 284.541 571.855 285.252 578.038 286.128ZM598.992 261.572C592.214 269.09 585.455 277.085 578.708 285.341C572.555 284.456 566.466 283.712 560.437 283.097C567.008 275.187 573.634 267.701 580.301 260.588C586.472 260.763 592.69 261.064 598.992 261.572ZM620.755 238.797C613.748 245.747 606.753 253.032 599.776 260.739C593.504 260.216 587.308 259.877 581.164 259.679C587.959 252.468 594.812 245.714 601.697 239.301C607.99 238.951 614.331 238.753 620.755 238.797ZM643.006 218.041C635.865 224.312 628.733 230.869 621.616 237.895C615.27 237.829 608.999 237.983 602.781 238.297C609.703 231.898 616.675 225.927 623.679 220.307C630.064 219.344 636.498 218.551 643.006 218.041ZM665.517 199.541C658.364 205.038 651.215 210.82 644.08 217.049C637.724 217.515 631.438 218.24 625.201 219.136C632.104 213.655 639.048 208.526 646.024 203.775C652.474 202.139 658.964 200.674 665.517 199.541ZM687.748 183.645C680.802 188.265 673.858 193.117 666.925 198.4C660.714 199.432 654.565 200.767 648.447 202.251C655.097 197.805 661.771 193.598 668.479 189.791C674.866 187.489 681.286 185.42 687.748 183.645ZM707.6 171.41C701.719 174.801 695.84 178.241 689.964 182.09C684.46 183.545 679.003 185.348 673.55 187.184C684.832 181.056 696.19 175.843 707.6 171.41ZM480.231 460.199C474.772 469.863 469.312 479.449 463.849 489.583C461.087 488.669 458.307 487.734 455.553 486.833C460.453 476.727 465.361 466.701 470.295 457.051C473.603 458.095 476.898 459.12 480.231 460.199ZM497.53 430.274C491.894 439.795 486.257 449.532 480.62 459.504C477.277 458.42 473.978 457.398 470.663 456.351C475.806 446.304 480.952 436.303 486.136 426.825C489.931 427.971 493.696 429.073 497.53 430.274ZM515.359 400.749C509.557 410.009 503.747 419.789 497.938 429.594C494.1 428.389 490.315 427.258 486.513 426.106C492.017 416.059 497.558 406.534 503.104 397.078C507.152 398.245 511.275 399.529 515.359 400.749ZM534.245 371.72C528.103 380.946 521.959 390.26 515.809 400.059C511.722 398.834 507.579 397.52 503.524 396.344C509.267 386.568 515.032 377.145 520.813 367.981C525.25 369.16 529.764 370.468 534.245 371.72ZM553.884 343.249C547.498 352.245 541.107 361.412 534.709 371.007C530.219 369.746 525.708 368.452 521.262 367.268C527.267 357.769 533.289 348.539 539.332 339.685C544.148 340.808 549.006 342.011 553.884 343.249ZM574.245 315.524C567.639 324.208 561.024 333.204 554.403 342.515C549.516 341.269 544.663 340.081 539.84 338.951C546.115 329.781 552.403 320.852 558.715 312.362C563.861 313.353 569.02 314.373 574.245 315.524ZM595.316 288.782C588.497 297.091 581.666 305.798 574.829 314.766C569.597 313.605 564.445 312.604 559.297 311.607C565.833 302.841 572.382 294.319 578.955 286.269C584.377 287.037 589.799 287.798 595.316 288.782ZM617.049 263.275C610.04 271.138 603.015 279.443 595.984 287.99C590.461 286.994 585.054 286.259 579.627 285.481C586.404 277.207 593.194 269.199 600.006 261.666C605.654 262.119 611.296 262.551 617.049 263.275ZM639.333 239.289C632.161 246.631 624.969 254.445 617.773 262.495C612.046 261.761 606.425 261.304 600.8 260.835C607.799 253.127 614.815 245.773 621.843 238.825C627.636 238.868 633.436 238.925 639.333 239.289ZM662.238 217.055C654.9 223.848 647.547 230.951 640.178 238.469C634.304 238.088 628.519 237.991 622.745 237.925C629.913 230.873 637.098 224.26 644.29 217.976C650.234 217.524 656.197 217.136 662.238 217.055ZM685.342 196.856C677.969 202.969 670.583 209.315 663.176 216.145C657.181 216.201 651.263 216.56 645.363 216.982C652.605 210.692 659.861 204.86 667.122 199.323C673.16 198.317 679.226 197.457 685.342 196.856ZM708.323 178.937C701.107 184.243 693.878 189.766 686.626 195.742C680.548 196.306 674.532 197.204 668.535 198.181C675.732 192.741 682.941 187.736 690.151 183.009C696.178 181.428 702.241 180.102 708.323 178.937ZM730.623 163.59C723.797 168.001 716.96 172.578 710.096 177.575C704.138 178.67 698.216 180.058 692.308 181.564C699.226 177.095 706.15 172.996 713.074 169.161C718.906 167.033 724.765 165.301 730.623 163.59ZM750.503 151.578C744.8 154.82 739.09 158.116 733.358 161.759C728.15 163.218 722.951 164.9 717.76 166.656C728.676 160.832 739.593 155.914 750.503 151.578ZM394.206 630.304C396.885 625.06 399.559 619.875 402.224 614.784C398.026 623.988 393.828 633.008 389.632 642.495C391.157 638.43 392.676 634.313 394.206 630.304ZM506.528 433.202C500.44 442.593 494.345 452.061 488.214 461.92C485.888 461.154 483.615 460.461 481.31 459.722C486.952 449.762 492.59 440.015 498.228 430.501C500.976 431.374 503.773 432.319 506.528 433.202ZM525.895 403.961C519.601 413.279 513.293 422.765 506.958 432.527C504.194 431.64 501.392 430.698 498.636 429.821C504.452 420.018 510.27 410.229 516.081 400.969C519.339 401.947 522.614 402.947 525.895 403.961ZM545.847 374.948C539.384 384.066 532.876 393.642 526.363 403.275C523.071 402.254 519.796 401.261 516.53 400.279C522.683 390.486 528.831 381.141 534.978 371.924C538.6 372.929 542.186 373.877 545.847 374.948ZM566.563 346.521C559.855 355.491 553.121 364.722 546.358 374.246C542.68 373.165 539.082 372.223 535.441 371.211C541.851 361.611 548.253 352.435 554.651 343.437C558.608 344.439 562.561 345.436 566.563 346.521ZM587.998 318.769C581.045 327.556 574.08 336.46 567.069 345.824C563.077 344.737 559.12 343.71 555.17 342.702C561.806 333.385 568.436 324.379 575.059 315.691C579.337 316.646 583.673 317.719 587.998 318.769ZM610.036 291.754C602.908 300.226 595.752 308.978 588.559 318.052C584.248 316.999 579.912 315.893 575.644 314.932C582.502 305.951 589.355 297.234 596.196 288.917C600.763 289.754 605.42 290.799 610.036 291.754ZM632.644 265.699C625.355 273.799 618.023 282.281 610.666 291.012C606.055 290.052 601.406 288.995 596.845 288.147C603.899 279.59 610.947 271.28 617.979 263.413C622.822 264.052 627.745 264.906 632.644 265.699ZM655.745 240.85C648.325 248.509 640.854 256.61 633.358 264.922C628.454 264.118 623.542 263.287 618.696 262.64C625.932 254.567 633.16 246.746 640.368 239.387C645.45 239.736 650.602 240.305 655.745 240.85ZM679.216 217.469C671.715 224.602 664.155 232.222 656.574 240.023C651.431 239.465 646.292 238.925 641.213 238.566C648.61 231.042 655.994 223.86 663.36 217.065C668.604 217.037 673.912 217.261 679.216 217.469ZM703.142 195.812C695.536 202.417 687.894 209.286 680.203 216.575C674.88 216.347 669.566 216.159 664.303 216.173C671.818 209.269 679.315 202.831 686.796 196.662C692.207 196.18 697.677 196.011 703.142 195.812ZM727.041 176.108C719.477 182.056 711.885 188.206 704.234 194.823C698.781 194.998 693.336 195.22 687.935 195.674C695.39 189.563 702.82 183.912 710.235 178.508C715.811 177.496 721.424 176.788 727.041 176.108ZM750.577 158.608C743.233 163.787 735.859 169.171 728.427 174.98C722.91 175.614 717.395 176.275 711.916 177.22C719.123 172.016 726.305 167.253 733.472 162.695C739.161 161.109 744.869 159.824 750.577 158.608ZM773.183 143.584C766.312 147.896 759.415 152.38 752.465 157.237C747.042 158.349 741.613 159.435 736.206 160.864C742.902 156.68 749.569 152.924 756.223 149.283C761.88 147.164 767.531 145.321 773.183 143.584ZM793.032 131.814C787.405 134.961 781.759 138.225 776.076 141.735C771.308 143.144 766.541 144.497 761.768 146.158C772.248 140.65 782.658 136.03 793.032 131.814ZM419.098 579.957C421.509 576.031 423.92 572.097 426.326 568.195C421.514 576.967 416.667 586.184 411.826 595.339C414.249 590.149 416.673 585.048 419.098 579.957ZM403.948 604.968C407.776 598.548 411.586 592.25 415.39 585.988C412.494 592.122 409.601 598.647 406.706 604.924C403.281 611.408 399.866 617.769 396.433 624.372C398.935 617.871 401.431 611.315 403.948 604.968ZM388.798 630.788C393.028 623.543 397.267 616.24 401.466 609.196C398.805 615.96 396.182 623.157 393.537 630.096C389.771 637.387 385.984 644.975 382.202 652.493C384.401 645.254 386.568 637.836 388.798 630.788ZM533.445 406.262C526.726 415.442 519.962 424.89 513.161 434.544C511.323 433.945 509.483 433.343 507.65 432.751C513.99 423.003 520.308 413.487 526.608 404.178C528.889 404.875 531.146 405.536 533.445 406.262ZM554.825 377.654C547.894 386.782 540.943 396.011 533.934 405.58C531.626 404.849 529.364 404.191 527.076 403.491C533.597 393.863 540.114 384.271 546.586 375.154C549.317 375.961 552.079 376.823 554.825 377.654ZM576.636 349.394C569.588 358.301 562.468 367.596 555.332 376.986C552.597 376.155 549.825 375.263 547.1 374.452C553.857 364.946 560.593 355.682 567.298 346.729C570.391 347.582 573.526 348.511 576.636 349.394ZM599.115 321.554C591.865 330.29 584.539 339.436 577.191 348.71C574.063 347.817 570.916 346.891 567.806 346.034C574.828 336.667 581.807 327.749 588.77 318.962C592.206 319.799 595.649 320.653 599.115 321.554ZM622.41 294.322C614.877 302.949 607.332 311.644 599.691 320.838C596.219 319.93 592.775 319.088 589.332 318.246C596.541 309.166 603.716 300.399 610.859 291.925C614.703 292.71 618.521 293.43 622.41 294.322ZM646.084 267.955C638.459 276.221 630.787 284.731 623.05 293.58C619.153 292.679 615.338 291.973 611.487 291.183C618.869 282.441 626.222 273.945 633.535 265.838C637.705 266.506 641.865 267.151 646.084 267.955ZM670.127 242.598C662.399 250.487 654.601 258.738 646.756 267.228C642.556 266.419 638.403 265.74 634.249 265.061C641.777 256.731 649.281 248.614 656.734 240.944C661.176 241.421 665.636 241.96 670.127 242.598ZM694.498 218.417C686.699 225.868 678.812 233.762 670.888 241.834C666.424 241.188 661.981 240.609 657.562 240.118C665.191 232.288 672.798 224.651 680.345 217.498C685.036 217.699 689.758 218.021 694.498 218.417ZM719.069 195.667C711.25 202.607 703.329 210.027 695.379 217.602C690.679 217.195 685.988 216.825 681.333 216.604C689.053 209.31 696.734 202.351 704.37 195.747C709.247 195.591 714.152 195.591 719.069 195.667ZM743.921 174.586C736.039 181.03 728.112 187.689 720.095 194.78C715.202 194.685 710.315 194.631 705.46 194.758C713.207 188.087 720.891 181.889 728.547 175.904C733.655 175.316 738.781 174.9 743.921 174.586ZM768.533 155.394C760.776 161.192 752.977 167.174 745.083 173.602C740.021 173.886 734.965 174.231 729.931 174.775C737.526 168.874 745.06 163.412 752.563 158.165C757.88 157.074 763.203 156.169 768.533 155.394ZM792.561 138.32C785.103 143.372 777.599 148.62 770.009 154.26C764.818 154.984 759.628 155.779 754.448 156.795C761.734 151.749 768.96 147.111 776.158 142.665C781.631 141.039 787.097 139.594 792.561 138.32ZM815.407 123.634C808.512 127.838 801.573 132.23 794.563 136.938C789.395 138.101 784.225 139.348 779.049 140.815C785.758 136.737 792.408 133.034 799.037 129.459C804.51 127.352 809.969 125.39 815.407 123.634ZM835.163 112.119C829.64 115.157 824.072 118.397 818.471 121.76C813.977 123.159 809.482 124.551 804.966 126.182C815.127 120.912 825.191 116.249 835.163 112.119ZM431.879 553.64C436.479 546.99 441.077 540.354 445.639 533.858C441.918 540.399 438.197 546.931 434.462 553.636C430.383 560.172 426.269 566.924 422.159 573.652C425.398 566.902 428.639 560.221 431.879 553.64ZM414.701 578.534C419.598 571.348 424.442 564.38 429.304 557.341C425.687 564.73 422.07 572.085 418.453 579.682C414.224 586.613 410.01 593.439 405.758 600.512C408.729 593.067 411.712 585.777 414.701 578.534ZM397.514 604.263C402.603 596.621 407.723 588.856 412.756 581.446C409.592 589.156 406.422 596.803 403.277 604.741C398.823 612.191 394.312 619.989 389.818 627.682C392.355 619.71 394.937 612.004 397.514 604.263ZM380.957 629.049C386.018 621.391 391.016 613.997 396.049 606.457C393.401 614.454 390.733 622.326 388.126 630.568C383.725 638.079 379.349 645.438 374.931 653.056C376.891 644.862 378.937 637.004 380.957 629.049ZM560.85 379.539C553.6 388.423 546.229 397.769 538.858 407.122C537.445 406.668 536.046 406.235 534.643 405.796C541.652 396.25 548.611 386.988 555.543 377.878C557.306 378.421 559.086 378.994 560.85 379.539ZM584.166 351.543C576.612 360.494 569.047 369.489 561.377 378.878C559.606 378.328 557.82 377.756 556.049 377.211C563.193 367.831 570.326 358.511 577.385 349.607C579.642 350.247 581.894 350.876 584.166 351.543ZM607.942 323.794C600.275 332.556 592.526 341.642 584.739 350.861C582.459 350.189 580.202 349.564 577.938 348.923C585.288 339.66 592.626 330.469 599.877 321.745C602.566 322.43 605.225 323.052 607.942 323.794ZM631.973 296.689C624.255 305.146 616.39 314.155 608.535 323.125C605.819 322.381 603.146 321.722 600.455 321.03C608.107 311.833 615.671 303.117 623.218 294.49C626.117 295.172 629.06 295.972 631.973 296.689ZM656.819 270.227C648.795 278.629 640.765 287.045 632.593 295.992C629.691 295.272 626.744 294.443 623.853 293.753C631.598 284.91 639.283 276.392 646.918 268.131C650.2 268.777 653.518 269.526 656.819 270.227ZM682.045 244.484C673.935 252.564 665.766 260.86 657.502 269.5C654.194 268.792 650.876 268.054 647.59 267.404C655.458 258.904 663.282 250.635 671.032 242.742C674.688 243.271 678.36 243.856 682.045 244.484ZM707.569 219.671C699.403 227.379 691.14 235.432 682.812 243.719C679.123 243.082 675.454 242.512 671.794 241.977C679.752 233.888 687.674 225.978 695.506 218.515C699.517 218.851 703.526 219.189 707.569 219.671ZM733.266 196.022C725.092 203.288 716.791 210.994 708.447 218.853C704.402 218.359 700.398 218.042 696.388 217.699C704.38 210.104 712.344 202.649 720.206 195.695C724.551 195.754 728.888 195.764 733.266 196.022ZM758.888 173.87C750.779 180.612 742.532 187.83 734.249 195.173C729.891 194.899 725.577 194.882 721.251 194.809C729.299 187.714 737.277 180.961 745.186 174.52C749.746 174.234 754.303 173.917 758.888 173.87ZM784.573 153.382C776.443 159.659 768.264 166.1 759.955 172.988C755.404 173.016 750.877 173.278 746.347 173.535C754.342 167.051 762.24 161.017 770.093 155.183C774.917 154.486 779.74 153.804 784.573 153.382ZM809.819 134.711C801.893 140.353 793.915 146.162 785.813 152.396C781.06 152.787 776.312 153.396 771.568 154.048C779.33 148.313 787.003 142.983 794.628 137.863C799.695 136.694 804.763 135.566 809.819 134.711ZM834.26 118.076C826.712 122.994 819.104 128.108 811.387 133.571C806.473 134.371 801.552 135.391 796.628 136.482C803.996 131.577 811.282 127.033 818.522 122.685C823.781 121.018 829.038 119.402 834.26 118.076ZM857.285 103.739C850.39 107.825 843.426 112.131 836.386 116.68C831.469 117.888 826.53 119.307 821.583 120.812C828.278 116.853 834.903 113.19 841.488 109.695C846.773 107.604 852.059 105.501 857.285 103.739ZM874.164 93.8942C869.682 96.351 865.084 99.1766 860.539 101.831C856.303 103.211 852.038 104.744 847.76 106.354C856.66 101.801 865.467 97.6262 874.164 93.8942ZM485.122 476.61C487.771 473.334 490.424 470.042 493.074 466.762C486.955 474.97 480.704 483.698 474.471 492.356C478.05 486.933 481.563 481.911 485.122 476.61ZM472.366 492.407C474.864 489.283 477.309 486.319 479.806 483.194C477.662 486.411 475.544 489.474 473.392 492.747C473.05 492.635 472.71 492.522 472.366 492.407ZM465.036 501.711C467.304 498.836 469.602 495.871 471.854 493.041C472.225 493.165 472.595 493.287 472.965 493.409C471.001 496.41 469.014 499.554 467.048 502.578C462.529 508.866 458.073 514.911 453.524 521.322C457.373 514.658 461.207 508.15 465.036 501.711ZM425.487 552.683C431.162 545.269 436.737 538.15 442.364 530.877C438.655 538.189 434.948 545.82 431.241 553.354C426.153 560.702 421.107 567.886 415.986 575.377C419.147 567.748 422.307 560.082 425.487 552.683ZM406.185 578.422C412 570.654 417.868 562.72 423.6 555.2C420.396 562.688 417.225 570.564 414.041 578.288C408.851 585.911 403.564 593.951 398.312 601.832C400.932 593.998 403.526 586.012 406.185 578.422ZM387.543 603.278C393.306 595.524 398.99 588.012 404.711 580.386C402.05 588.022 399.469 596.143 396.847 604.026C391.716 611.705 386.614 619.265 381.452 627.071C383.48 619.127 385.455 610.973 387.543 603.278ZM369.076 628.593C374.836 620.675 380.666 612.537 386.339 604.883C384.255 612.603 382.304 620.855 380.282 628.823C375.193 636.545 369.983 644.771 364.829 652.769C366.25 644.726 367.572 636.38 369.076 628.593ZM471.158 492.809C470.098 494.134 469.026 495.493 467.961 496.832C468.809 495.408 469.654 494.01 470.502 492.593L471.158 492.809ZM493.892 464.656C492.527 466.352 491.172 468.013 489.802 469.721C490.992 467.96 492.175 466.23 493.365 464.476C493.541 464.535 493.718 464.597 493.892 464.656ZM588.835 352.874C581.016 361.562 572.991 370.844 565.006 380.013C564.033 379.707 563.059 379.403 562.088 379.1C569.763 369.717 577.342 360.701 584.902 351.753C586.214 352.128 587.512 352.478 588.835 352.874ZM613.945 325.551C605.822 334.301 597.71 343.017 589.437 352.201C588.105 351.8 586.797 351.448 585.475 351.071C593.265 341.86 601.021 332.773 608.691 324.013C610.435 324.509 612.203 325.061 613.945 325.551ZM639.351 298.58C631.167 307.118 622.893 315.912 614.555 324.886C612.807 324.392 611.034 323.842 609.284 323.345C617.142 314.377 625.021 305.335 632.74 296.884C634.937 297.433 637.146 298.009 639.351 298.58ZM665.135 271.988C656.885 280.275 648.439 289.111 640.016 297.892C637.8 297.317 635.587 296.746 633.383 296.194C641.559 287.254 649.607 278.793 657.634 270.4C660.133 270.923 662.619 271.412 665.135 271.988ZM691.533 246.101C683.057 254.27 674.528 262.579 665.866 271.27C663.332 270.685 660.832 270.202 658.318 269.673C666.604 261.02 674.796 252.713 682.926 244.624C685.792 245.102 688.646 245.546 691.533 246.101ZM718.062 221.134C709.546 228.983 700.968 237.004 692.259 245.388C689.39 244.83 686.544 244.346 683.694 243.858C692.054 235.554 700.347 227.486 708.544 219.766C711.703 220.16 714.888 220.667 718.062 221.134ZM744.737 197.082C736.224 204.556 727.59 212.358 718.879 220.377C715.727 219.908 712.559 219.356 709.422 218.946C717.801 211.069 726.134 203.356 734.342 196.077C737.793 196.322 741.274 196.761 744.737 197.082ZM771.398 174.179C762.946 181.208 754.325 188.687 745.667 196.275C742.203 195.941 738.727 195.527 735.275 195.27C743.594 187.911 751.887 180.651 760.03 173.898C763.812 173.901 767.607 174.064 771.398 174.179ZM797.945 152.665C789.582 159.213 781.061 166.183 772.486 173.297C768.7 173.167 764.913 173.03 761.136 173.017C769.478 166.123 777.713 159.587 785.872 153.312C789.894 153 793.92 152.828 797.945 152.665ZM824.376 132.73C816.056 138.824 807.699 145.012 799.162 151.678C795.143 151.823 791.125 152.024 787.112 152.325C795.32 146.034 803.402 140.174 811.428 134.492C815.748 133.803 820.064 133.233 824.376 132.73ZM850.085 114.606C842.107 120.038 834.069 125.628 825.884 131.599C821.593 132.074 817.295 132.678 812.997 133.352C820.897 127.786 828.685 122.595 836.409 117.604C840.979 116.499 845.539 115.499 850.085 114.606ZM874.581 98.5512C867.163 103.222 859.664 108.098 852.058 113.246C847.566 114.095 843.052 115.129 838.531 116.209C845.954 111.454 853.281 107.002 860.542 102.762C865.239 101.262 869.923 99.842 874.581 98.5512ZM896.752 85.05C890.392 88.7409 883.922 92.7194 877.42 96.7722C872.907 97.9763 868.351 99.4082 863.792 100.857C870.446 97.0273 877.032 93.4021 883.552 89.9954C887.98 88.2381 892.373 86.6128 896.752 85.05ZM913.922 75.3921C909.884 77.5777 905.772 79.9471 901.677 82.2794C897.889 83.5714 894.039 85.1041 890.204 86.5757C898.213 82.5353 906.117 78.8125 913.922 75.3921ZM526.109 424.426C529.962 420.164 533.725 416.118 537.548 411.929C530.86 419.831 524.147 427.801 517.393 435.898C520.286 432.121 523.232 428.138 526.109 424.426ZM516.222 435.541C517.53 434.075 518.861 432.556 520.16 431.111C519.009 432.609 517.841 434.169 516.683 435.69L516.222 435.541ZM502.68 450.764C507.026 445.854 511.348 440.999 515.659 436.173L516.186 436.344C513.17 440.302 510.152 444.273 507.129 448.265C502.934 453.375 498.662 458.717 494.4 464.028C494.203 463.962 494.005 463.894 493.807 463.826C496.77 459.438 499.739 455.019 502.68 450.764ZM491.699 463.107C494.175 460.319 496.632 457.577 499.115 454.77C497.126 457.664 495.118 460.66 493.122 463.592C492.646 463.429 492.169 463.263 491.699 463.107ZM480.702 475.579C484.206 471.577 487.69 467.625 491.153 463.721C491.657 463.888 492.169 464.065 492.68 464.242C489.953 468.246 487.229 472.216 484.49 476.3C480.19 481.671 475.957 486.842 471.67 492.176L470.904 491.923C474.175 486.43 477.446 480.911 480.702 475.579ZM467.594 490.825C471.076 486.764 474.584 482.636 478.008 478.711C475.419 482.969 472.819 487.356 470.223 491.696C469.348 491.407 468.473 491.117 467.594 490.825ZM415.876 551.785C422.438 543.898 429.086 535.799 435.545 528.158C431.965 536.156 428.385 544.149 424.827 552.425C418.963 560.106 412.943 568.256 406.991 576.205C409.922 567.878 412.899 559.827 415.876 551.785ZM395.171 576.652C401.671 568.788 408.084 561.131 414.529 553.403C411.512 561.583 408.486 569.697 405.518 578.17C399.707 585.909 393.926 593.558 388.074 601.429C390.386 592.951 392.788 584.841 395.171 576.652ZM374.704 601.76C381.159 593.816 387.679 585.721 394.035 578.015C391.633 586.306 389.198 594.451 386.869 603.036C381.129 610.774 375.245 618.956 369.42 626.95C371.102 618.308 372.925 610.103 374.704 601.76ZM354.583 626.666C360.963 618.763 367.381 610.768 373.71 602.99C371.923 611.417 370.071 619.646 368.387 628.378C362.683 636.195 356.923 644.181 351.185 652.103C352.206 643.351 353.437 635.112 354.583 626.666ZM466.357 491.218C464.185 493.753 462.035 496.232 459.86 498.776C461.295 496.073 462.734 493.19 464.169 490.493L466.357 491.218ZM480.08 475.257C475.753 480.205 471.311 485.428 466.895 490.593L464.526 489.807C469.993 479.678 475.457 470.073 480.922 460.416C483.215 461.149 485.472 461.83 487.787 462.592C485.225 466.729 482.647 471.051 480.08 475.257ZM490.449 463.483C487.9 466.341 485.357 469.184 482.773 472.123C484.677 469.021 486.584 465.871 488.482 462.813C489.135 463.031 489.801 463.268 490.449 463.483ZM502.072 450.416C498.369 454.595 494.68 458.735 490.997 462.868C490.304 462.639 489.6 462.392 488.901 462.154C495.031 452.314 501.133 442.797 507.22 433.427C509.037 434.013 510.865 434.613 512.686 435.205C509.16 440.216 505.621 445.287 502.072 450.416ZM514.95 435.942C511.841 439.443 508.756 442.886 505.636 446.411C508.233 442.676 510.805 439.082 513.388 435.433C513.908 435.602 514.429 435.772 514.95 435.942ZM525.512 424.069C522.229 427.699 518.856 431.543 515.514 435.309C514.961 435.127 514.411 434.951 513.861 434.772C520.66 425.146 527.438 415.63 534.153 406.478C535.552 406.909 536.933 407.311 538.347 407.764C534.073 413.18 529.824 418.503 525.512 424.069ZM539.958 408.303C537.138 411.351 534.324 414.389 531.479 417.493C534.028 414.226 536.518 411.191 539.049 407.999C539.354 408.103 539.658 408.207 539.958 408.303ZM547.156 400.504C544.943 402.908 542.735 405.301 540.532 407.682C540.211 407.578 539.885 407.468 539.56 407.358C546.932 398.011 554.313 388.631 561.56 379.762C562.519 380.061 563.479 380.362 564.437 380.662C558.68 387.263 552.982 393.696 547.156 400.504ZM565.232 380.91C564.592 381.605 563.946 382.313 563.313 382.992C563.932 382.282 564.544 381.588 565.159 380.888L565.232 380.91ZM591.215 353.553C582.794 362.36 574.391 371.124 565.825 380.269L565.729 380.238C573.721 371.059 581.734 361.821 589.572 353.085C590.119 353.238 590.663 353.387 591.215 353.553ZM617.276 326.526C608.931 335.016 600.386 343.967 591.854 352.889C591.293 352.72 590.742 352.569 590.189 352.414C598.472 343.2 606.564 334.536 614.689 325.769C615.551 326.02 616.417 326.28 617.276 326.526ZM644.038 299.782C635.407 308.314 626.748 316.91 617.93 325.873C617.055 325.623 616.176 325.36 615.301 325.105C623.662 316.092 631.928 307.353 640.135 298.781C641.434 299.112 642.731 299.433 644.038 299.782ZM671.208 273.346C662.464 281.736 653.657 290.272 644.721 299.098C643.408 298.746 642.106 298.427 640.799 298.092C649.253 289.271 657.693 280.484 665.969 272.164C667.714 272.553 669.452 272.923 671.208 273.346ZM698.371 247.578C689.686 255.635 680.799 264.152 671.91 272.675C670.169 272.253 668.434 271.844 666.702 271.447C675.365 262.747 683.886 254.451 692.362 246.279C694.357 246.687 696.371 247.165 698.371 247.578ZM726.042 222.416C717.18 230.338 708.229 238.456 699.146 246.873C697.129 246.452 695.101 245.978 693.088 245.566C701.829 237.148 710.416 229.156 718.962 221.278C721.317 221.633 723.68 222.021 726.042 222.416ZM754.022 197.981C745.064 205.668 736.06 213.459 726.871 221.662C724.502 221.261 722.138 220.883 719.777 220.522C728.531 212.464 737.184 204.684 745.735 197.179C748.494 197.429 751.25 197.65 754.022 197.981ZM781.981 174.487C773.095 181.779 764.083 189.354 754.96 197.173C752.185 196.832 749.428 196.625 746.665 196.371C755.381 188.736 764.032 181.276 772.538 174.207C775.684 174.281 778.823 174.285 781.981 174.487ZM809.482 152.344C800.789 159.14 791.899 166.365 782.966 173.686C779.845 173.476 776.738 173.418 773.626 173.326C782.234 166.188 790.803 159.161 799.195 152.596C802.624 152.458 806.052 152.349 809.482 152.344ZM836.745 131.561C828.177 137.906 819.451 144.591 810.639 151.463C807.255 151.453 803.871 151.496 800.489 151.607C809.087 144.903 817.521 138.644 825.898 132.523C829.517 132.121 833.131 131.824 836.745 131.561ZM863.643 112.322C855.2 118.211 846.729 124.158 838.041 130.573C834.497 130.813 830.955 131.029 827.404 131.393C835.749 125.32 843.928 119.684 852.054 114.174C855.93 113.451 859.784 112.892 863.643 112.322ZM889.544 94.8572C881.546 100.086 873.477 105.465 865.248 111.183C861.509 111.712 857.781 112.157 854.026 112.814C861.927 107.49 869.694 102.514 877.394 97.7075C881.468 96.6331 885.502 95.766 889.544 94.8572ZM913.856 79.4525C906.561 83.9047 899.149 88.6036 891.652 93.476C887.82 94.3075 884.012 95.0203 880.156 95.976C887.402 91.4968 894.554 87.2547 901.623 83.2238C905.737 81.8305 909.787 80.6788 913.856 79.4525ZM935.068 66.7463C929.125 70.1338 922.973 73.9574 916.892 77.6349C913.155 78.723 909.433 79.7603 905.669 80.9472C911.92 77.4408 918.146 73.9973 924.259 70.8356C927.906 69.3379 931.465 68.1034 935.068 66.7463ZM953.37 56.8514C949.034 59.1645 944.714 61.445 940.302 63.914C937.634 64.8785 934.957 65.8655 932.281 66.8516C939.396 63.3107 946.444 59.9339 953.37 56.8514ZM453.557 522.476L454.09 522.658C450.538 528.196 447.024 533.503 443.458 539.133C445.605 535.34 447.758 531.47 449.901 527.732C451.124 525.963 452.351 524.178 453.557 522.476ZM449.875 521.215C450.682 521.485 451.501 521.771 452.314 522.05C451.3 523.808 450.279 525.678 449.264 527.448C444.154 534.689 438.98 542.189 433.815 549.654C437.464 542.281 441.112 534.953 444.763 527.792C446.467 525.598 448.173 523.402 449.875 521.215ZM448.441 520.722C448.69 520.809 448.942 520.897 449.19 520.98L446.519 524.415C447.16 523.164 447.8 521.966 448.441 520.722ZM443.367 519.006C444.826 519.492 446.297 519.991 447.767 520.492C446.552 522.854 445.337 525.114 444.121 527.499C438.308 534.998 432.572 542.269 426.713 549.909C430.193 541.853 433.688 533.98 437.189 526.192C439.264 523.761 441.285 521.457 443.367 519.006ZM440.738 518.157C441.379 518.363 442.015 518.564 442.662 518.778C441.138 520.573 439.647 522.288 438.142 524.037C439.011 522.112 439.869 520.065 440.738 518.157ZM430.145 514.735C433.453 515.807 436.724 516.835 440.06 517.938C438.884 520.521 437.721 523.279 436.547 525.892C429.991 533.639 423.228 541.886 416.565 549.892C421.038 537.851 425.569 526.152 430.145 514.735ZM416.178 510.224C420.583 511.628 425.017 513.068 429.457 514.513C424.655 526.502 419.907 538.832 415.217 551.509C408.702 559.319 402.209 567.077 395.636 575.027C402.242 552.425 409.041 530.624 416.178 510.224ZM399.379 504.924C404.71 506.573 410.091 508.285 415.477 509.998C408.182 530.87 401.24 553.217 394.501 576.39C388.086 584.162 381.523 592.29 375.01 600.294C382.346 566.061 390.459 534.217 399.379 504.924ZM379.348 498.892C385.754 500.794 392.17 502.703 398.667 504.71C389.631 534.418 381.426 566.747 374.017 601.525C367.649 609.345 361.181 617.408 354.756 625.366C361.138 578.681 369.36 536.543 379.348 498.892ZM356.163 492.172C363.58 494.263 371.062 496.432 378.614 498.671C368.549 536.678 360.28 579.253 353.883 626.447C348.917 632.594 344.029 638.554 338.988 644.885C337.595 646.634 336.219 648.341 334.837 650.063C338.406 590.051 345.58 537.477 356.163 492.172ZM106.072 455.336C96.8571 456.309 88.1826 457.772 80.0015 459.678C91.4505 451.489 105.203 445.439 120.834 441.182C115.445 445.436 110.512 450.144 106.072 455.336ZM137.46 453.61C127.237 453.645 117.503 454.133 108.24 455.046C113.015 449.645 118.311 444.758 124.117 440.376C132.422 438.273 141.172 436.596 150.477 435.456C145.625 440.966 141.263 446.994 137.46 453.61ZM170.225 454.914C159.454 454.14 149.002 453.673 139.038 453.655C143 446.904 147.55 440.772 152.604 435.171C161.741 434.111 171.264 433.423 181.308 433.248C177.102 439.892 173.371 447.073 170.225 454.914ZM204.004 458.408C192.846 456.959 182.002 455.809 171.549 455.03C174.778 447.11 178.612 439.868 182.928 433.176C192.613 433.043 202.642 433.251 213.109 433.897C209.594 441.48 206.598 449.699 204.004 458.408ZM237.625 463.586C226.491 461.63 215.633 459.946 205.08 458.557C207.717 449.804 210.81 441.602 214.399 434.01C224.431 434.661 234.816 435.667 245.489 436.971C242.489 445.337 239.866 454.207 237.625 463.586ZM270.142 469.895C259.399 467.62 248.888 465.58 238.6 463.761C240.864 454.372 243.5 445.477 246.54 437.118C256.563 438.36 266.841 439.864 277.389 441.651C274.649 450.591 272.223 459.99 270.142 469.895ZM300.916 476.833C290.77 474.394 280.833 472.169 271.04 470.088C273.136 460.177 275.582 450.772 278.34 441.826C288.051 443.481 297.923 445.307 308.047 447.402C305.398 456.768 303.004 466.55 300.916 476.833ZM329.446 483.95C320.05 481.473 310.881 479.237 301.751 477.042C303.851 466.751 306.26 456.964 308.922 447.596C318.097 449.501 327.386 451.529 336.872 453.776C334.174 463.423 331.678 473.44 329.446 483.95ZM355.592 491.174C347.085 488.774 338.578 486.377 330.253 484.173C332.495 473.658 334.989 463.613 337.694 453.958C346.134 455.969 354.789 458.217 363.451 460.477C360.651 470.319 358.063 480.624 355.592 491.174ZM378.818 497.914C371.27 495.671 363.777 493.484 356.362 491.386C358.84 480.829 361.443 470.531 364.25 460.68C371.957 462.696 379.763 464.826 387.636 467.032C384.568 476.995 381.637 487.311 378.818 497.914ZM398.891 503.953C392.379 501.941 385.969 500.041 379.552 498.136C382.377 487.526 385.315 477.209 388.392 467.246C395.218 469.155 401.995 471.006 408.947 473.063C405.501 483.06 402.135 493.315 398.891 503.953ZM415.743 509.28C410.349 507.561 404.942 505.825 399.602 504.169C402.853 493.525 406.224 483.27 409.676 473.271C415.409 474.979 421.284 476.859 427.083 478.644C423.234 488.566 419.441 498.722 415.743 509.28ZM429.744 513.799C425.294 512.349 420.857 510.913 416.442 509.505C420.143 498.949 423.937 488.784 427.787 478.862C432.611 480.345 437.398 481.785 442.277 483.334C438.055 493.219 433.892 503.46 429.744 513.799ZM440.374 517.231C437.026 516.123 433.751 515.098 430.432 514.022C434.585 503.678 438.754 493.442 442.979 483.552C446.81 484.773 450.679 486.043 454.536 487.297C449.8 497.078 445.069 506.934 440.374 517.231ZM443.206 518.146C442.48 517.905 441.769 517.681 441.051 517.45C445.749 507.155 450.483 497.301 455.221 487.524C457.966 488.423 460.74 489.359 463.494 490.269C461.613 493.792 459.733 497.558 457.851 501.112C452.951 506.833 448.143 512.337 443.206 518.146ZM448.116 519.822C446.71 519.337 445.295 518.842 443.905 518.38C448.141 513.397 452.268 508.673 456.472 503.763C453.687 509.059 450.902 514.413 448.116 519.822ZM449.675 520.355C449.382 520.257 449.085 520.153 448.79 520.052C452.019 513.782 455.251 507.551 458.48 501.426C461.352 498.07 464.193 494.787 467.058 491.45L469.822 492.367C468.012 495.386 466.206 498.362 464.394 501.421C459.542 507.571 454.577 514.059 449.675 520.355ZM452.688 521.387C451.912 521.121 451.132 520.85 450.361 520.589C454.059 515.839 457.791 510.989 461.469 506.3C458.549 511.244 455.619 516.306 452.688 521.387ZM454.507 522.01L454.002 521.838C456.095 518.886 458.162 516.033 460.245 513.121C458.331 516.088 456.424 519.024 454.507 522.01ZM785.056 653.544C673.577 604.012 560.078 557.754 455.184 522.242C459.355 515.746 463.511 509.333 467.672 502.891C469.87 499.844 472.051 496.866 474.247 493.835C596.303 534.898 731.01 592.601 860.273 653.544H861.9C732.324 592.4 597.192 534.453 474.718 493.186C481.58 483.692 488.444 474.187 495.204 465.103C633.055 511.065 788.182 581.202 932.551 653.545H934.049C789.445 581.033 633.94 510.65 495.688 464.467C499.759 459.001 503.745 453.873 507.782 448.548C511.068 444.531 514.3 440.683 517.546 436.787C669.585 486.797 843.875 570.237 1000.13 653.544H1001.57C845.15 570.093 670.515 486.404 518.086 436.146C525.829 426.842 533.53 417.669 541.159 408.705C706.063 461.926 898.383 559.8 1063.28 653.544H1064.63C899.624 559.684 706.984 461.557 541.693 408.071C543.682 405.734 545.728 403.23 547.71 400.916C553.803 394.296 559.942 387.57 565.956 381.137C742.539 436.605 951.668 550.157 1121.84 653.544H1123.14C952.921 550.069 743.507 436.256 566.548 380.494C575.13 371.33 583.526 362.599 591.966 353.768C779.329 410.54 1004.09 541.431 1176.12 653.544H1177.35C1005.34 541.377 780.33 410.217 592.593 353.114C601.139 344.173 609.672 335.263 618.036 326.748C815.669 383.534 1055.21 533.85 1225.83 653.544H1227C1056.45 533.837 816.693 383.252 618.69 326.097C627.519 317.112 636.176 308.529 644.818 299.981C852.422 355.492 1105.57 527.819 1271.18 653.544H1272.3C1106.81 527.846 853.476 355.234 645.501 299.298C654.45 290.451 663.245 281.956 672 273.553C889.673 326.219 1155.22 523.866 1312.1 653.544H1313.15C1156.45 523.953 890.744 326.029 672.704 272.883C681.619 264.333 690.508 255.842 699.219 247.762C927.56 295.479 1204.33 522.8 1348.53 653.544H1349.53C1205.57 522.955 928.696 295.347 699.993 247.057C709.09 238.625 718.056 230.489 726.93 222.559C967.223 263.213 1253.59 526.083 1380.48 653.544H1381.44C1254.85 526.323 968.41 263.135 727.758 221.804C736.986 213.567 746.01 205.79 755.002 198.075C1009.69 229.194 1304.01 536.421 1407.9 653.544H1408.81C1305.32 536.792 1010.97 229.222 755.939 197.268C765.083 189.434 774.098 181.89 783.002 174.585C1057.24 192.911 1358.9 560.96 1430.68 653.544H1431.54C1360.36 561.668 1058.64 193.101 783.987 173.784C792.978 166.422 801.905 159.204 810.656 152.373C1101.33 153.067 1397.09 576.687 1441 642.026V640.795C1395.04 572.569 1101.09 153.425 811.811 151.492C820.657 144.601 829.439 137.848 838.039 131.491C1131.41 111.526 1399.38 546.03 1441 616.749V615.394C1397.54 541.747 1131.16 112.081 839.333 130.503C848.129 124.019 856.686 118.047 865.227 112.107C1164.28 69.6112 1402.19 514.098 1441 591.047V589.512C1400.31 509.145 1163.86 70.5242 866.833 110.967C875.232 105.146 883.45 99.7169 891.61 94.4086C1199.47 27.425 1405.24 479.616 1441 564.644V562.856C1403.51 474.169 1198.96 28.9264 893.715 93.0271C901.533 87.9705 909.226 83.1739 916.824 78.5751C1236.89 -14.7243 1408.88 441.768 1441 537.014V534.826C1407.24 435.464 1236.17 -12.3047 919.853 76.7599C926.715 72.6487 933.543 68.5989 940.225 64.8559C1275.33 -56.2531 1413.03 397.55 1441 506.899V504.07C1411.6 390.533 1274.51 -51.7188 945.458 62.026C950.787 59.0978 956.135 56.1285 961.35 53.4313C1312.03 -95.3796 1417.68 340.864 1441 470.751V466.771C1416.61 333.734 1311.83 -84.9889 973.982 47.1792C1337.27 -130.883 1421.75 255.362 1441 416.071V410.17C1420.18 243.976 1331.58 -138.801 961.469 52.4747C949.358 57.6101 936.998 63.3424 924.299 69.9037C911.05 75.3148 897.437 81.8137 883.584 89.0544C869.807 94.5562 855.746 101.182 841.454 108.769C827.478 114.247 813.319 120.803 798.972 128.531C784.793 133.972 770.512 140.489 756.13 148.349C741.74 153.728 727.337 160.253 712.938 168.222C697.951 173.688 683.047 180.486 668.282 188.866C653.313 194.229 638.553 201.036 624.05 209.393C608.884 214.705 594.042 221.481 579.618 229.948C564.243 235.192 549.33 241.971 534.993 250.533C519.394 255.687 504.427 262.511 490.187 271.144C474.349 276.197 459.354 283.09 445.215 291.777C429.137 296.756 414.087 303.663 400.074 312.435C383.603 317.368 368.4 324.388 354.425 333.346C337.557 338.238 322.208 345.356 308.308 354.516C291.206 359.347 275.82 366.443 262.122 375.694C244.778 380.47 229.339 387.536 215.857 396.885C198.302 401.635 182.748 408.605 169.532 418.082C151.738 422.791 136.1 429.711 123.134 439.29C105.056 443.911 89.4016 450.845 76.682 460.503C2.85665 479.014 -26.4152 537.304 14.7425 653.545H15.7719C-24.3172 539.781 3.389 481.797 74.4448 462.439C34.2398 494.918 24.5576 555.637 57.5078 653.545H58.4548C25.1971 554.384 35.8476 493.523 77.7517 461.62C86.2336 459.49 95.2708 457.854 104.89 456.749C73.7337 494.563 68.4869 557.789 98.252 653.545H99.1759C69.3492 557.241 75.0842 493.979 107.053 456.46C116.474 455.436 126.326 454.803 136.769 454.717C113.184 496.816 111.001 561.284 136.759 653.545H137.643C111.913 561.06 114.377 496.618 138.385 454.702C148.391 454.672 158.929 455.132 169.765 455.878C152.014 501.065 151.555 565.636 172.883 653.545H173.733C152.463 565.566 153.097 501.051 171.088 455.995C181.607 456.75 192.538 457.894 203.779 459.334C189.968 506.481 189.878 570.248 206.599 653.545H207.402C190.722 570.241 190.907 506.525 204.854 459.483C215.418 460.856 226.293 462.527 237.446 464.472C226.108 512.629 225.488 574.947 237.687 653.545H238.468C226.309 574.974 226.994 512.714 238.421 464.647C248.715 466.453 259.234 468.481 269.989 470.747C259.944 519.139 258.174 579.577 266.051 653.545H266.814C258.969 579.626 260.783 519.252 270.885 470.941C280.684 473.012 290.622 475.224 300.773 477.655C291.111 525.692 287.772 584.004 291.595 653.545H292.343C288.544 584.068 291.91 525.821 301.609 477.863C310.728 480.05 319.89 482.278 329.276 484.745C319.315 532.002 314.176 588.142 314.241 653.545H314.976C314.929 588.214 320.083 532.138 330.064 484.955C338.378 487.151 346.899 489.568 355.394 491.96C344.766 537.577 337.586 590.551 334.052 651.044L332.047 653.545H332.921L333.984 652.219L333.907 653.545H334.631L334.769 651.238C336.362 649.256 337.947 647.287 339.552 645.274C344.343 639.256 348.99 633.591 353.71 627.748C352.568 636.23 351.341 644.502 350.325 653.291L350.142 653.545H351.017L351.023 653.496C356.709 645.646 362.413 637.745 368.072 629.981C366.615 637.563 365.34 645.694 363.972 653.545H365.147C370.034 645.937 374.97 638.119 379.786 630.803C377.874 638.372 375.926 645.794 374.06 653.545H375.436C379.341 646.826 383.21 640.333 387.107 633.673C385.09 640.087 383.142 646.903 381.164 653.545H382.439C385.4 647.659 388.36 641.776 391.309 636.028C389.112 641.844 386.91 647.638 384.72 653.545H385.668C392.89 636.955 400.117 620.861 407.346 605.198C416.639 587.628 425.904 570.427 435.116 553.895C441.707 543.311 448.243 533.06 454.766 522.891C559.22 558.202 672.266 604.225 783.373 653.545H785.056V653.544Z" fill="white"/>
</mask>
<g mask="url(#mask0_3015_7295)">
<path d="M-26.415 -138.801L1441 -138.801V653.545H-26.415V-138.801Z" fill="url(#paint0_linear_3015_7295)"/>
</g>
<defs>
<linearGradient id="paint0_linear_3015_7295" x1="1303.19" y1="235.238" x2="245.218" y2="276.504" gradientUnits="userSpaceOnUse">
<stop offset="0.179" stop-color="#509FD5" stop-opacity="0.5"/>
<stop offset="1" stop-color="#1189C4" stop-opacity="0.2"/>
</linearGradient>
</defs>
</svg>
