<svg width="1440" height="679" viewBox="0 0 1440 679" fill="none" xmlns="http://www.w3.org/2000/svg">
<mask id="mask0_3015_7311" style="mask-type:alpha" maskUnits="userSpaceOnUse" x="0" y="0" width="1440" height="687">
<path d="M1440 0H0V687H1440V0Z" fill="#F5FCFF"/>
</mask>
<g mask="url(#mask0_3015_7311)">
<g opacity="0.1">
<path d="M2241.08 -70.0254C2145.75 -33.4373 2061.69 14.691 1992.93 72.0466C1831.03 208.378 1855.9 318.988 1761.65 334.696C1616.01 358.959 1516.07 101.487 1207.8 56.0446C981.691 22.6949 754.45 119.82 701.853 142.325C496.655 230.011 471.367 330.449 322.886 330.716C214.273 330.989 181.034 277.378 10.6311 252.128C-107.998 234.552 -211.322 242.813 -280.867 252.728" stroke="url(#paint0_linear_3015_7311)" stroke-width="2" stroke-miterlimit="10"/>
<path d="M2240.98 -57.2549C2145.65 -20.6542 2061.57 27.4811 1992.79 84.8405C1830.89 221.197 1855.76 331.782 1761.55 347.493C1615.88 371.753 1515.93 114.281 1207.7 68.841C981.552 35.5144 754.311 132.64 701.716 155.119C496.519 242.805 471.269 343.246 322.75 343.51C214.137 343.783 180.936 290.174 10.4943 264.922C-108.173 247.343 -211.459 255.607 -281.004 265.522" stroke="url(#paint1_linear_3015_7311)" stroke-width="2" stroke-miterlimit="10"/>
<path d="M2240.89 -44.4854C2145.54 -7.8931 2061.47 40.2434 1992.7 97.61C1830.8 233.967 1855.67 344.552 1761.42 360.26C1615.9 384.531 1515.8 127.048 1207.57 81.6079C981.459 48.2839 754.218 145.41 701.623 167.888C496.423 255.6 471.137 356.012 322.657 356.279C214.043 356.552 180.807 302.916 10.4037 277.666C-108.264 260.087 -211.55 268.351 -281.094 278.266" stroke="url(#paint2_linear_3015_7311)" stroke-width="2" stroke-miterlimit="10"/>
<path d="M2240.72 -31.7197C2145.39 4.89178 2061.33 53.0368 1992.56 110.404C1830.66 246.762 1855.53 357.346 1761.32 373.057C1615.65 397.318 1515.71 139.845 1207.47 94.4048C981.323 61.078 754.082 158.204 701.487 180.683C496.287 268.395 471.039 368.81 322.52 369.074C213.907 369.347 180.709 315.713 10.2674 290.46C-108.4 272.882 -211.686 281.145 -281.231 291.06" stroke="url(#paint3_linear_3015_7311)" stroke-width="2" stroke-miterlimit="10"/>
<path d="M2240.66 -18.9482C2145.33 17.6524 2061.25 65.7877 1992.47 123.147C1830.54 259.501 1855.44 370.114 1761.19 385.797C1615.56 410.06 1515.58 152.585 1207.34 107.145C981.194 73.8184 753.991 170.947 701.358 193.423C496.196 281.138 470.91 381.55 322.429 381.816C213.816 382.09 180.58 328.453 10.1766 303.203C-108.491 285.624 -211.779 293.913 -281.321 303.803" stroke="url(#paint4_linear_3015_7311)" stroke-width="2" stroke-miterlimit="10"/>
<path d="M2240.53 -6.18066C2145.2 30.4272 2061.13 78.561 1992.34 135.913C1830.44 272.269 1855.3 382.878 1761.09 398.563C1615.54 422.831 1515.48 165.354 1207.21 119.809C981.107 86.4851 753.866 183.61 701.271 206.088C496.071 293.8 470.824 394.214 322.305 394.478C213.692 394.751 180.494 341.117 10.0521 315.865C-108.615 298.287 -211.903 306.576 -281.484 316.462" stroke="url(#paint5_linear_3015_7311)" stroke-width="2" stroke-miterlimit="10"/>
<path d="M2240.36 6.61523C2145.03 43.2292 2060.98 91.3851 1992.24 148.768C1830.3 285.123 1855.2 395.737 1760.96 411.419C1615.32 435.708 1515.34 178.232 1207.1 132.791C980.96 99.4389 753.757 196.568 701.124 219.044C495.962 306.759 470.677 407.172 322.196 407.439C213.582 407.712 180.346 354.075 9.94261 328.825C-108.727 311.272 -212.013 319.535 -281.556 329.424" stroke="url(#paint6_linear_3015_7311)" stroke-width="2" stroke-miterlimit="10"/>
<path d="M2240.31 19.2754C2144.96 55.8676 2060.89 104.004 1992.12 161.371C1830.22 297.702 1855.09 408.312 1760.88 424.023C1615.2 448.284 1515.26 190.812 1206.99 145.369C980.882 112.019 753.641 209.145 701.044 231.649C495.846 319.335 470.599 419.75 322.077 420.04C213.464 420.313 180.228 366.676 9.82206 341.452C-108.807 323.876 -212.093 332.14 -281.676 342.052" stroke="url(#paint7_linear_3015_7311)" stroke-width="2" stroke-miterlimit="10"/>
<path d="M2240.21 32.1504C2144.86 68.748 2060.77 116.882 1991.98 174.242C1830.08 310.573 1854.98 421.185 1760.74 436.893C1615.18 461.161 1515.12 203.683 1206.89 158.166C980.749 124.814 753.546 221.942 700.911 244.443C495.752 332.132 470.464 432.569 321.983 432.836C213.37 433.109 180.131 379.498 9.72783 354.248C-108.94 336.67 -212.225 344.933 -281.77 354.848" stroke="url(#paint8_linear_3015_7311)" stroke-width="2" stroke-miterlimit="10"/>
<path d="M2240 44.915C2144.67 81.5523 2060.62 129.725 1991.87 187.12C1829.98 323.478 1854.84 434.064 1760.59 449.772C1614.96 474.035 1515.02 216.561 1206.74 171.117C980.635 137.767 753.393 234.894 700.796 257.398C495.598 345.086 470.349 445.527 321.829 445.792C213.216 446.065 179.977 392.453 9.57346 367.203C-109.056 349.627 -212.342 357.89 -281.925 367.803" stroke="url(#paint9_linear_3015_7311)" stroke-width="2" stroke-miterlimit="10"/>
<path d="M2239.94 57.6338C2144.62 94.242 2060.54 142.376 1991.76 199.729C1829.86 336.086 1854.72 446.671 1760.51 462.381C1614.88 486.645 1514.9 229.17 1206.66 183.73C980.515 150.403 753.312 247.531 700.679 270.007C495.519 357.697 470.231 458.134 321.712 458.398C213.137 458.674 179.898 405.063 9.45682 379.81C-109.211 362.232 -212.496 370.495 -282.041 380.41" stroke="url(#paint10_linear_3015_7311)" stroke-width="2" stroke-miterlimit="10"/>
<path d="M2239.85 70.457C2144.51 107.058 2060.44 155.193 1991.66 212.552C1829.76 348.909 1854.62 459.494 1760.38 475.202C1614.74 499.465 1514.8 241.993 1206.52 196.55C980.417 163.226 753.175 260.352 700.581 282.831C495.38 370.543 470.133 470.958 321.614 471.222C213.001 471.495 179.765 417.858 9.36125 392.608C-109.268 375.032 -212.554 383.296 -282.137 393.208" stroke="url(#paint11_linear_3015_7311)" stroke-width="2" stroke-miterlimit="10"/>
<path d="M2239.63 83.2197C2144.31 119.835 2060.24 167.969 1991.45 225.315C1829.55 361.672 1854.41 472.257 1760.2 487.968C1614.65 512.211 1514.6 254.653 1206.43 209.321C980.282 175.994 753.079 273.123 700.446 295.599C495.284 383.314 469.998 483.726 321.479 483.99C212.904 484.266 179.668 430.629 9.22598 405.376C-109.442 387.798 -212.73 396.087 -282.272 405.976" stroke="url(#paint12_linear_3015_7311)" stroke-width="2" stroke-miterlimit="10"/>
<path d="M2239.62 95.9951C2144.28 132.596 2060.21 180.731 1991.43 238.091C1829.53 374.448 1854.39 485.058 1760.15 500.74C1614.51 525.004 1514.57 267.531 1206.3 222.088C980.19 188.764 752.948 285.89 700.392 308.371C495.192 396.084 469.944 496.498 321.425 496.763C212.812 497.036 179.576 443.399 9.17248 418.149C-109.457 400.573 -212.745 408.862 -282.326 418.749" stroke="url(#paint13_linear_3015_7311)" stroke-width="2" stroke-miterlimit="10"/>
<path d="M2239.49 108.764C2144.16 145.372 2060.09 193.506 1991.3 250.859C1829.4 387.217 1854.26 497.827 1760.05 513.512C1614.46 537.778 1514.44 280.3 1206.2 234.885C980.054 201.559 752.851 298.687 700.218 321.163C495.056 408.878 469.77 509.291 321.251 509.555C212.676 509.83 179.44 456.194 8.99831 430.941C-109.672 413.388 -212.957 421.651 -282.5 431.541" stroke="url(#paint14_linear_3015_7311)" stroke-width="2" stroke-miterlimit="10"/>
<path d="M2239.27 121.552C2143.92 158.137 2059.84 206.274 1991.08 263.647C1829.19 399.978 1854.05 510.589 1759.8 526.271C1614.28 550.568 1514.23 293.011 1206.06 247.653C979.96 214.303 752.718 311.429 700.124 333.907C494.923 421.62 469.676 522.034 321.157 522.299C212.544 522.572 179.307 468.935 8.90404 443.685C-109.728 426.135 -213.013 434.398 -282.594 444.285" stroke="url(#paint15_linear_3015_7311)" stroke-width="2" stroke-miterlimit="10"/>
<path d="M2239.25 134.355C2143.91 170.948 2059.83 219.084 1991.06 276.451C1829.17 412.782 1854.03 523.392 1759.82 539.103C1614.18 563.366 1514.2 305.892 1205.97 260.451C979.824 227.099 752.621 324.227 699.986 346.729C494.826 434.418 469.538 534.856 321.019 535.12C212.406 535.393 179.206 481.785 8.76396 456.532C-109.904 438.954 -213.189 447.217 -282.734 457.132" stroke="url(#paint16_linear_3015_7311)" stroke-width="2" stroke-miterlimit="10"/>
<path d="M2239.16 147.099C2143.82 183.691 2059.74 231.828 1990.97 289.195C1829.07 425.527 1853.94 536.137 1759.69 551.845C1614.09 576.111 1514.11 318.636 1205.83 273.244C979.728 239.894 752.487 337.02 699.89 359.524C494.691 447.211 469.442 547.652 320.923 547.916C212.309 548.189 179.071 494.578 8.6674 469.328C-109.962 451.752 -213.248 460.016 -282.831 469.928" stroke="url(#paint17_linear_3015_7311)" stroke-width="2" stroke-miterlimit="10"/>
<path d="M2238.91 159.858C2143.58 196.459 2059.5 244.595 1990.72 301.954C1828.83 438.311 1853.69 548.896 1759.48 564.607C1613.96 588.929 1513.87 331.369 1205.74 285.962C979.599 252.636 752.357 349.762 699.763 372.24C494.603 459.93 469.315 560.368 320.796 560.632C212.182 560.905 178.982 507.296 8.54018 482.044C-110.127 464.465 -213.413 472.729 -282.958 482.644" stroke="url(#paint18_linear_3015_7311)" stroke-width="2" stroke-miterlimit="10"/>
<path d="M2238.92 172.716C2143.58 209.308 2059.5 257.444 1990.73 314.81C1828.83 451.166 1853.7 561.75 1759.45 577.458C1613.82 601.721 1513.87 344.251 1205.6 298.808C979.5 265.408 752.259 362.533 699.665 385.011C494.464 472.723 469.217 573.137 320.698 573.401C212.085 573.674 178.849 520.038 8.44561 494.788C-110.184 477.212 -213.469 485.476 -283.052 495.388" stroke="url(#paint19_linear_3015_7311)" stroke-width="2" stroke-miterlimit="10"/>
<path d="M2238.8 185.406C2143.46 222.007 2059.39 270.143 1990.61 327.503C1828.71 463.861 1853.58 574.446 1759.37 590.157C1613.73 614.421 1513.75 356.944 1205.51 311.606C979.36 278.279 752.119 375.405 699.524 397.884C494.362 485.6 469.076 586.013 320.557 586.277C211.944 586.55 178.746 532.915 8.30421 507.663C-110.363 490.084 -213.649 498.347 -283.194 508.262" stroke="url(#paint20_linear_3015_7311)" stroke-width="2" stroke-miterlimit="10"/>
<path d="M2238.55 198.164C2143.22 234.765 2059.14 282.9 1990.36 340.26C1828.47 476.617 1853.33 587.228 1759.08 602.91C1613.59 627.287 1513.5 369.726 1205.38 324.268C979.277 290.944 752.036 388.07 699.441 410.549C494.241 498.261 468.994 598.676 320.474 598.94C211.861 599.214 178.625 545.577 8.22144 520.327C-110.408 502.751 -213.734 511.037 -283.277 520.926" stroke="url(#paint21_linear_3015_7311)" stroke-width="2" stroke-miterlimit="10"/>
<path d="M2238.56 211.073C2143.23 247.681 2059.16 295.815 1990.37 353.167C1828.47 489.523 1853.33 600.132 1759.13 615.817C1613.49 640.08 1513.51 382.608 1205.27 337.168C979.141 303.713 751.9 400.838 699.305 423.316C494.105 511.028 468.858 611.441 320.339 611.706C211.726 611.979 178.528 558.345 8.08632 533.093C-110.581 515.515 -213.869 523.803 -283.412 533.693" stroke="url(#paint22_linear_3015_7311)" stroke-width="2" stroke-miterlimit="10"/>
<path d="M2238.48 223.737C2143.14 260.322 2059.06 308.45 1990.29 365.807C1828.39 502.163 1853.25 612.773 1759.01 628.456C1613.37 652.745 1513.43 395.273 1205.16 349.805C979.049 316.481 751.808 413.606 699.213 436.085C494.013 523.797 468.727 624.209 320.247 624.475C211.633 624.748 178.397 571.112 7.99355 545.862C-110.638 528.312 -213.962 536.573 -283.504 546.462" stroke="url(#paint23_linear_3015_7311)" stroke-width="2" stroke-miterlimit="10"/>
<path d="M2238.19 236.492C2142.85 273.085 2058.77 321.221 1990 378.588C1828.11 514.92 1852.97 625.53 1758.76 641.241C1613.23 665.641 1513.14 408.08 1205.06 362.599C978.917 329.247 751.676 426.373 699.078 448.877C493.88 536.564 468.633 636.979 320.112 637.269C211.498 637.542 178.3 583.907 7.8562 558.68C-110.811 541.102 -214.097 549.365 -283.642 559.28" stroke="url(#paint24_linear_3015_7311)" stroke-width="2" stroke-miterlimit="10"/>
<path d="M2238.25 249.272C2142.9 285.865 2058.83 334.001 1990.06 391.368C1828.16 527.699 1853.02 638.309 1758.78 654.017C1613.14 678.281 1513.16 420.806 1204.92 375.366C978.82 342.016 751.586 439.065 698.943 461.643C493.784 549.333 468.496 649.77 320.015 650.037C211.402 650.31 178.163 596.699 7.75969 571.449C-110.908 553.871 -214.194 562.134 -283.739 572.049" stroke="url(#paint25_linear_3015_7311)" stroke-width="2" stroke-miterlimit="10"/>
<path d="M2238.11 262.04C2142.78 298.641 2058.7 346.776 1989.92 404.135C1828.03 540.492 1852.89 651.077 1758.68 666.788C1613.01 691.048 1513.07 433.576 1204.83 388.136C978.686 354.784 751.445 451.909 698.848 474.413C493.65 562.1 468.4 662.54 319.881 662.805C211.268 663.078 178.067 609.469 7.62567 584.217C-111.042 566.638 -214.327 574.902 -283.872 584.817" stroke="url(#paint26_linear_3015_7311)" stroke-width="2" stroke-miterlimit="10"/>
</g>
</g>
<defs>
<linearGradient id="paint0_linear_3015_7311" x1="1003.51" y1="-155.249" x2="966.938" y2="375.86" gradientUnits="userSpaceOnUse">
<stop offset="0.151041" stop-color="#008FD5" stop-opacity="0"/>
<stop offset="1" stop-color="#33444C"/>
</linearGradient>
<linearGradient id="paint1_linear_3015_7311" x1="1003.4" y1="-142.48" x2="966.821" y2="388.656" gradientUnits="userSpaceOnUse">
<stop offset="0.151041" stop-color="#008FD5" stop-opacity="0"/>
<stop offset="1" stop-color="#33444C"/>
</linearGradient>
<linearGradient id="paint2_linear_3015_7311" x1="1003.3" y1="-129.71" x2="966.728" y2="401.425" gradientUnits="userSpaceOnUse">
<stop offset="0.151041" stop-color="#008FD5" stop-opacity="0"/>
<stop offset="1" stop-color="#33444C"/>
</linearGradient>
<linearGradient id="paint3_linear_3015_7311" x1="1003.15" y1="-116.943" x2="966.573" y2="414.219" gradientUnits="userSpaceOnUse">
<stop offset="0.151041" stop-color="#008FD5" stop-opacity="0"/>
<stop offset="1" stop-color="#33444C"/>
</linearGradient>
<linearGradient id="paint4_linear_3015_7311" x1="1003.08" y1="-104.173" x2="966.501" y2="426.962" gradientUnits="userSpaceOnUse">
<stop offset="0.151041" stop-color="#008FD5" stop-opacity="0"/>
<stop offset="1" stop-color="#33444C"/>
</linearGradient>
<linearGradient id="paint5_linear_3015_7311" x1="1002.92" y1="-91.4059" x2="966.354" y2="439.622" gradientUnits="userSpaceOnUse">
<stop offset="0.151041" stop-color="#008FD5" stop-opacity="0"/>
<stop offset="1" stop-color="#33444C"/>
</linearGradient>
<linearGradient id="paint6_linear_3015_7311" x1="1002.81" y1="-78.6075" x2="966.23" y2="452.582" gradientUnits="userSpaceOnUse">
<stop offset="0.151041" stop-color="#008FD5" stop-opacity="0"/>
<stop offset="1" stop-color="#33444C"/>
</linearGradient>
<linearGradient id="paint7_linear_3015_7311" x1="1002.72" y1="-65.9494" x2="966.148" y2="465.186" gradientUnits="userSpaceOnUse">
<stop offset="0.151041" stop-color="#008FD5" stop-opacity="0"/>
<stop offset="1" stop-color="#33444C"/>
</linearGradient>
<linearGradient id="paint8_linear_3015_7311" x1="1002.62" y1="-53.0738" x2="966.052" y2="477.981" gradientUnits="userSpaceOnUse">
<stop offset="0.151041" stop-color="#008FD5" stop-opacity="0"/>
<stop offset="1" stop-color="#33444C"/>
</linearGradient>
<linearGradient id="paint9_linear_3015_7311" x1="1002.45" y1="-40.3082" x2="965.865" y2="490.936" gradientUnits="userSpaceOnUse">
<stop offset="0.151041" stop-color="#008FD5" stop-opacity="0"/>
<stop offset="1" stop-color="#33444C"/>
</linearGradient>
<linearGradient id="paint10_linear_3015_7311" x1="1002.36" y1="-27.591" x2="965.783" y2="503.545" gradientUnits="userSpaceOnUse">
<stop offset="0.151041" stop-color="#008FD5" stop-opacity="0"/>
<stop offset="1" stop-color="#33444C"/>
</linearGradient>
<linearGradient id="paint11_linear_3015_7311" x1="1002.26" y1="-14.7678" x2="965.685" y2="516.368" gradientUnits="userSpaceOnUse">
<stop offset="0.151041" stop-color="#008FD5" stop-opacity="0"/>
<stop offset="1" stop-color="#33444C"/>
</linearGradient>
<linearGradient id="paint12_linear_3015_7311" x1="1002.09" y1="-2.00258" x2="965.512" y2="529.133" gradientUnits="userSpaceOnUse">
<stop offset="0.151041" stop-color="#008FD5" stop-opacity="0"/>
<stop offset="1" stop-color="#33444C"/>
</linearGradient>
<linearGradient id="paint13_linear_3015_7311" x1="1002.05" y1="10.7715" x2="965.477" y2="541.907" gradientUnits="userSpaceOnUse">
<stop offset="0.151041" stop-color="#008FD5" stop-opacity="0"/>
<stop offset="1" stop-color="#33444C"/>
</linearGradient>
<linearGradient id="paint14_linear_3015_7311" x1="1001.9" y1="23.5386" x2="965.323" y2="554.701" gradientUnits="userSpaceOnUse">
<stop offset="0.151041" stop-color="#008FD5" stop-opacity="0"/>
<stop offset="1" stop-color="#33444C"/>
</linearGradient>
<linearGradient id="paint15_linear_3015_7311" x1="1001.74" y1="36.3309" x2="965.17" y2="567.44" gradientUnits="userSpaceOnUse">
<stop offset="0.151041" stop-color="#008FD5" stop-opacity="0"/>
<stop offset="1" stop-color="#33444C"/>
</linearGradient>
<linearGradient id="paint16_linear_3015_7311" x1="1001.67" y1="49.1307" x2="965.09" y2="580.266" gradientUnits="userSpaceOnUse">
<stop offset="0.151041" stop-color="#008FD5" stop-opacity="0"/>
<stop offset="1" stop-color="#33444C"/>
</linearGradient>
<linearGradient id="paint17_linear_3015_7311" x1="1001.58" y1="61.8734" x2="964.995" y2="593.063" gradientUnits="userSpaceOnUse">
<stop offset="0.151041" stop-color="#008FD5" stop-opacity="0"/>
<stop offset="1" stop-color="#33444C"/>
</linearGradient>
<linearGradient id="paint18_linear_3015_7311" x1="1001.39" y1="74.6373" x2="964.81" y2="605.774" gradientUnits="userSpaceOnUse">
<stop offset="0.151041" stop-color="#008FD5" stop-opacity="0"/>
<stop offset="1" stop-color="#33444C"/>
</linearGradient>
<linearGradient id="paint19_linear_3015_7311" x1="1001.34" y1="87.4917" x2="964.767" y2="618.547" gradientUnits="userSpaceOnUse">
<stop offset="0.151041" stop-color="#008FD5" stop-opacity="0"/>
<stop offset="1" stop-color="#33444C"/>
</linearGradient>
<linearGradient id="paint20_linear_3015_7311" x1="1001.21" y1="100.181" x2="964.631" y2="631.423" gradientUnits="userSpaceOnUse">
<stop offset="0.151041" stop-color="#008FD5" stop-opacity="0"/>
<stop offset="1" stop-color="#33444C"/>
</linearGradient>
<linearGradient id="paint21_linear_3015_7311" x1="1001.05" y1="112.944" x2="964.469" y2="644.081" gradientUnits="userSpaceOnUse">
<stop offset="0.151041" stop-color="#008FD5" stop-opacity="0"/>
<stop offset="1" stop-color="#33444C"/>
</linearGradient>
<linearGradient id="paint22_linear_3015_7311" x1="1000.97" y1="125.85" x2="964.406" y2="656.851" gradientUnits="userSpaceOnUse">
<stop offset="0.151041" stop-color="#008FD5" stop-opacity="0"/>
<stop offset="1" stop-color="#33444C"/>
</linearGradient>
<linearGradient id="paint23_linear_3015_7311" x1="1000.89" y1="138.513" x2="964.317" y2="669.621" gradientUnits="userSpaceOnUse">
<stop offset="0.151041" stop-color="#008FD5" stop-opacity="0"/>
<stop offset="1" stop-color="#33444C"/>
</linearGradient>
<linearGradient id="paint24_linear_3015_7311" x1="1000.68" y1="151.272" x2="964.106" y2="682.409" gradientUnits="userSpaceOnUse">
<stop offset="0.151041" stop-color="#008FD5" stop-opacity="0"/>
<stop offset="1" stop-color="#33444C"/>
</linearGradient>
<linearGradient id="paint25_linear_3015_7311" x1="1000.66" y1="164.048" x2="964.086" y2="695.183" gradientUnits="userSpaceOnUse">
<stop offset="0.151041" stop-color="#008FD5" stop-opacity="0"/>
<stop offset="1" stop-color="#33444C"/>
</linearGradient>
<linearGradient id="paint26_linear_3015_7311" x1="1000.53" y1="176.815" x2="963.952" y2="707.951" gradientUnits="userSpaceOnUse">
<stop offset="0.151041" stop-color="#008FD5" stop-opacity="0"/>
<stop offset="1" stop-color="#33444C"/>
</linearGradient>
</defs>
</svg>
