<svg width="101" height="20" viewBox="0 0 101 20" fill="none" xmlns="http://www.w3.org/2000/svg">
<path d="M10.4645 15.7603L16.6445 19.4839L15.0045 12.4658L20.4645 7.74385L13.2745 7.13489L10.4645 0.516113L7.65454 7.13489L0.464539 7.74385L5.92454 12.4658L4.28454 19.4839L10.4645 15.7603Z" fill="#F2C94C"/>
<path d="M30.4645 15.7603L36.6445 19.4839L35.0045 12.4658L40.4645 7.74385L33.2745 7.13489L30.4645 0.516113L27.6545 7.13489L20.4645 7.74385L25.9245 12.4658L24.2845 19.4839L30.4645 15.7603Z" fill="#F2C94C"/>
<path d="M50.4645 15.7603L56.6445 19.4839L55.0045 12.4658L60.4645 7.74385L53.2745 7.13489L50.4645 0.516113L47.6545 7.13489L40.4645 7.74385L45.9245 12.4658L44.2845 19.4839L50.4645 15.7603Z" fill="#F2C94C"/>
<path d="M70.4645 15.7603L76.6445 19.4839L75.0045 12.4658L80.4645 7.74385L73.2745 7.13489L70.4645 0.516113L67.6545 7.13489L60.4645 7.74385L65.9245 12.4658L64.2845 19.4839L70.4645 15.7603Z" fill="#F2C94C"/>
<path d="M90.4645 15.7603L96.6445 19.4839L95.0045 12.4658L100.465 7.74385L93.2745 7.13489L90.4645 0.516113L87.6545 7.13489L80.4645 7.74385L85.9245 12.4658L84.2845 19.4839L90.4645 15.7603Z" fill="#F2C94C"/>
</svg>
